<?xml version="1.0" encoding="UTF-8"?>
<svg id="exportSvg" xmlns="http://www.w3.org/2000/svg" width="800" height="401.3" xmlns:xlink="http://www.w3.org/1999/xlink" viewBox="0 0 800 401.3">
  <defs>
    <clipPath id="clippath">
      <rect width="799.58" height="401.3" style="fill: none; stroke-width: 0px;"/>
    </clipPath>
  </defs>
  <rect width="800.85" height="401.3" style="fill: #fff; stroke-width: 0px;"/>
  <g style="clip-path: url(#clippath);">
    <polygon points="-2 .3 799.18 1.57 799.18 402.3 -2 401.03 -2 .3" style="fill: #fff; stroke-width: 0px;"/>
    <g style="isolation: isolate;">
      <g style="isolation: isolate;">
        <g style="isolation: isolate;">
          <g style="isolation: isolate;">
            <path d="M15.92,266.48h-4.17v4.22h4.17v1.92H6.12v-1.92h3.84v-4.22h-3.84v-1.92h9.81v1.92h-.01Z" style="fill: #1a1a1a; stroke-width: 0px;"/>
            <path d="M12.36,255.7c2.2,0,3.71,1.6,3.71,3.74s-1.51,3.71-3.71,3.71-3.7-1.58-3.7-3.71,1.5-3.74,3.7-3.74ZM12.36,261.28c1.18,0,2.06-.74,2.06-1.85s-.88-1.85-2.06-1.85-2.04.74-2.04,1.85.87,1.85,2.04,1.85Z" style="fill: #1a1a1a; stroke-width: 0px;"/>
            <path d="M10.91,249.46v1.79c-.52,0-.81.27-.81.81s.29.78.7.78.64-.24.83-1.23c.28-1.72.99-2.33,2.14-2.33,1.61,0,2.31,1.27,2.31,2.75,0,1.75-.91,2.72-2.31,2.77v-1.79c.57,0,.88-.39.88-1.02,0-.56-.27-.88-.69-.88s-.69.22-.88,1.29c-.27,1.55-.94,2.25-2.11,2.25s-2.3-.85-2.3-2.61c0-1.5.9-2.55,2.24-2.59h0Z" style="fill: #1a1a1a; stroke-width: 0px;"/>
            <path d="M12.36,240.61c2.09,0,3.71,1.39,3.71,3.31,0,1.02-.42,1.76-.94,2.13h3.8v1.81h-10.11v-1.56l.95-.13c-.57-.41-1.11-1.05-1.11-2.27,0-1.91,1.61-3.29,3.7-3.29ZM12.34,246.09h.08c1.26,0,1.95-.92,1.95-1.81,0-.99-.78-1.79-2-1.79s-2,.77-2,1.79c0,.9.7,1.81,1.98,1.81h-.01Z" style="fill: #1a1a1a; stroke-width: 0px;"/>
            <path d="M6.73,237.2c.62,0,1.08.49,1.08,1.11s-.46,1.09-1.08,1.09-1.08-.49-1.08-1.09.48-1.11,1.08-1.11ZM15.92,239.2h-7.1v-1.81h7.1v1.81Z" style="fill: #1a1a1a; stroke-width: 0px;"/>
            <path d="M8.82,231.62h1.65v1.64l2.89.03c.71,0,1.02-.22,1.02-.94,0-.34-.04-.55-.1-.73h1.58c.08.22.15.57.15,1.13,0,1.55-.63,2.35-2.24,2.34l-3.31-.03v1.16h-1.65v-1.18h-1.72v-1.83l1.72.03v-1.62h.01Z" style="fill: #1a1a1a; stroke-width: 0px;"/>
            <path d="M11.26,224.75h4.66v1.55l-.87.11c.57.38,1.02,1.02,1.02,2.03,0,1.26-.77,2.16-2.05,2.16-1.39,0-1.92-.94-2.13-2.2l-.32-1.83h-.28c-.71,0-1.08.34-1.08.99,0,.6.36,1.08.94,1.08v1.75c-1.44-.08-2.49-1.15-2.49-2.83s.85-2.82,2.59-2.82h.01ZM13.88,228.8c.42,0,.7-.29.7-.84,0-.45-.22-.88-.64-1.13-.24-.15-.59-.25-.94-.25h-.21l.29,1.41c.11.48.32.81.8.81Z" style="fill: #1a1a1a; stroke-width: 0px;"/>
            <path d="M15.92,223.02H5.7v-1.81h10.23v1.81h0Z" style="fill: #1a1a1a; stroke-width: 0px;"/>
            <path d="M6.73,217.29c.62,0,1.08.49,1.08,1.11s-.46,1.09-1.08,1.09-1.08-.49-1.08-1.09.48-1.11,1.08-1.11ZM15.92,219.29h-7.1v-1.81h7.1v1.81Z" style="fill: #1a1a1a; stroke-width: 0px;"/>
            <path d="M14.34,213.64v-3.4h1.58v5.81h-1.36l-4.16-3.22v3.21h-1.58v-5.62h1.34l4.17,3.22h0Z" style="fill: #1a1a1a; stroke-width: 0px;"/>
            <path d="M11.26,203.46h4.66v1.55l-.87.11c.57.38,1.02,1.02,1.02,2.03,0,1.26-.77,2.16-2.05,2.16-1.39,0-1.92-.94-2.13-2.2l-.32-1.83h-.28c-.71,0-1.08.34-1.08.99,0,.6.36,1.08.94,1.08v1.75c-1.44-.08-2.49-1.15-2.49-2.83s.85-2.82,2.59-2.82h.01ZM13.88,207.5c.42,0,.7-.29.7-.84,0-.45-.22-.88-.64-1.13-.24-.15-.59-.25-.94-.25h-.21l.29,1.41c.11.48.32.81.8.81Z" style="fill: #1a1a1a; stroke-width: 0px;"/>
            <path d="M8.82,197.89h1.65v1.64l2.89.03c.71,0,1.02-.22,1.02-.94,0-.34-.04-.55-.1-.73h1.58c.08.22.15.57.15,1.13,0,1.55-.63,2.35-2.24,2.34l-3.31-.03v1.16h-1.65v-1.18h-1.72v-1.83l1.72.03v-1.62h.01Z" style="fill: #1a1a1a; stroke-width: 0px;"/>
            <path d="M6.73,194.44c.62,0,1.08.49,1.08,1.11s-.46,1.09-1.08,1.09-1.08-.49-1.08-1.09.48-1.11,1.08-1.11ZM15.92,196.45h-7.1v-1.81h7.1v1.81Z" style="fill: #1a1a1a; stroke-width: 0px;"/>
            <path d="M12.36,185.77c2.2,0,3.71,1.6,3.71,3.74s-1.51,3.71-3.71,3.71-3.7-1.58-3.7-3.71,1.5-3.74,3.7-3.74ZM12.36,191.35c1.18,0,2.06-.74,2.06-1.85s-.88-1.85-2.06-1.85-2.04.74-2.04,1.85.87,1.85,2.04,1.85Z" style="fill: #1a1a1a; stroke-width: 0px;"/>
            <path d="M11.31,178.42h4.61v1.81h-4.22c-.83,0-1.27.35-1.27,1.04s.55,1.25,1.74,1.25h3.75v1.81h-7.1v-1.55l.92-.13c-.59-.32-1.08-.98-1.08-1.92,0-1.51,1.04-2.3,2.65-2.3h0Z" style="fill: #1a1a1a; stroke-width: 0px;"/>
            <path d="M10.99,171.47c.25.34.67.56,1.3.57h3.63v1.82h-7.1v-1.57l1.13-.15c-.62-.25-1.2-.87-1.2-2.09h1.81c0,.57.1,1.01.43,1.41h0Z" style="fill: #1a1a1a; stroke-width: 0px;"/>
            <path d="M11.26,163.47h4.66v1.55l-.87.11c.57.38,1.02,1.02,1.02,2.03,0,1.26-.77,2.16-2.05,2.16-1.39,0-1.92-.94-2.13-2.2l-.32-1.83h-.28c-.71,0-1.08.34-1.08.99,0,.6.36,1.08.94,1.08v1.75c-1.44-.08-2.49-1.15-2.49-2.83s.85-2.82,2.59-2.82h.01ZM13.88,167.52c.42,0,.7-.29.7-.84,0-.45-.22-.88-.64-1.13-.24-.15-.59-.25-.94-.25h-.21l.29,1.42c.11.48.32.81.8.81h0Z" style="fill: #1a1a1a; stroke-width: 0px;"/>
            <path d="M8.82,157.9h1.65v1.64l2.89.03c.71,0,1.02-.22,1.02-.94,0-.34-.04-.55-.1-.73h1.58c.08.22.15.57.15,1.13,0,1.55-.63,2.35-2.24,2.34l-3.31-.03v1.16h-1.65v-1.18h-1.72v-1.83l1.72.03v-1.62h.01Z" style="fill: #1a1a1a; stroke-width: 0px;"/>
            <path d="M12.92,150.16v4.94c.94-.06,1.6-.7,1.6-1.69,0-.71-.28-1.25-.83-1.44v-1.77c1.5.43,2.38,1.54,2.38,3.25,0,2.1-1.46,3.53-3.7,3.53s-3.71-1.41-3.71-3.53c0-1.88,1.19-3.29,3.68-3.29h.58ZM11.68,151.98c-.92.03-1.51.62-1.51,1.51s.63,1.53,1.51,1.61v-3.12Z" style="fill: #1a1a1a; stroke-width: 0px;"/>
            <path d="M12.36,138.72c2.09,0,3.71,1.39,3.71,3.31,0,1.02-.42,1.77-.94,2.13h3.8v1.81h-10.11v-1.55l.95-.13c-.57-.41-1.11-1.05-1.11-2.27,0-1.9,1.61-3.29,3.7-3.29h0ZM12.34,144.2h.08c1.26,0,1.95-.92,1.95-1.81,0-.99-.78-1.79-2-1.79s-2,.77-2,1.79c0,.9.7,1.81,1.98,1.81h-.01Z" style="fill: #1a1a1a; stroke-width: 0px;"/>
            <path d="M12.92,130.91v4.94c.94-.06,1.6-.7,1.6-1.69,0-.71-.28-1.25-.83-1.44v-1.77c1.5.43,2.38,1.54,2.38,3.25,0,2.1-1.46,3.53-3.7,3.53s-3.71-1.41-3.71-3.53c0-1.88,1.19-3.29,3.68-3.29h.58ZM11.68,132.73c-.92.03-1.51.62-1.51,1.51s.63,1.53,1.51,1.61v-3.12Z" style="fill: #1a1a1a; stroke-width: 0px;"/>
            <path d="M10.99,127.06c.25.34.67.56,1.3.57h3.63v1.82h-7.1v-1.57l1.13-.15c-.62-.25-1.2-.87-1.2-2.09h1.81c0,.57.1,1.01.43,1.41h0Z" style="fill: #1a1a1a; stroke-width: 0px;"/>
            <path d="M15.92,120.09h-6.81v2.06h-1.62c0-1.51-.32-2.31-1.37-2.58v-1.4h9.81v1.92h-.01Z" style="fill: #1a1a1a; stroke-width: 0px;"/>
            <path d="M11,109.76c3.14,0,5.1,1.23,5.1,3.47s-1.96,3.47-5.1,3.47-5.07-1.23-5.07-3.47,1.95-3.47,5.07-3.47ZM11,114.77c2.09,0,3.31-.52,3.31-1.54s-1.22-1.54-3.31-1.54-3.28.5-3.28,1.54,1.2,1.54,3.28,1.54Z" style="fill: #1a1a1a; stroke-width: 0px;"/>
            <path d="M11,101.78c3.14,0,5.1,1.23,5.1,3.47s-1.96,3.47-5.1,3.47-5.07-1.23-5.07-3.47,1.95-3.47,5.07-3.47ZM11,106.79c2.09,0,3.31-.52,3.31-1.54s-1.22-1.54-3.31-1.54-3.28.5-3.28,1.54,1.2,1.54,3.28,1.54Z" style="fill: #1a1a1a; stroke-width: 0px;"/>
            <path d="M15.09,98.78c.94,0,1.98.53,2.69,1.16l-.2.52c-.49-.24-.98-.36-1.6-.42-.06.53-.46.92-1.01.92-.6,0-1.06-.48-1.06-1.09s.45-1.09,1.18-1.09Z" style="fill: #1a1a1a; stroke-width: 0px;"/>
            <path d="M11,91.02c3.14,0,5.1,1.23,5.1,3.47s-1.96,3.47-5.1,3.47-5.07-1.23-5.07-3.47,1.95-3.47,5.07-3.47ZM11,96.04c2.09,0,3.31-.52,3.31-1.54s-1.22-1.54-3.31-1.54-3.28.5-3.28,1.54,1.2,1.54,3.28,1.54Z" style="fill: #1a1a1a; stroke-width: 0px;"/>
            <path d="M11,83.04c3.14,0,5.1,1.23,5.1,3.47s-1.96,3.47-5.1,3.47-5.07-1.23-5.07-3.47,1.95-3.47,5.07-3.47ZM11,88.06c2.09,0,3.31-.52,3.31-1.54s-1.22-1.54-3.31-1.54-3.28.5-3.28,1.54,1.2,1.54,3.28,1.54Z" style="fill: #1a1a1a; stroke-width: 0px;"/>
            <path d="M11,75.06c3.14,0,5.1,1.23,5.1,3.47s-1.96,3.47-5.1,3.47-5.07-1.23-5.07-3.47,1.95-3.47,5.07-3.47ZM11,80.08c2.09,0,3.31-.52,3.31-1.54s-1.22-1.54-3.31-1.54-3.28.5-3.28,1.54,1.2,1.54,3.28,1.54Z" style="fill: #1a1a1a; stroke-width: 0px;"/>
          </g>
        </g>
      </g>
    </g>
    <g id="footer-svg">
      <g style="isolation: isolate;">
        <g style="isolation: isolate;">
          <g style="isolation: isolate;">
            <g style="isolation: isolate;">
              <path d="M11.28,392.97h-1.31c-.38-1.05-1.23-1.77-2.73-1.77-1.92,0-3.26,1.53-3.26,3.61s1.34,3.61,3.28,3.61c1.51,0,2.41-.77,2.77-1.81h1.27c-.51,1.83-1.9,2.91-4.04,2.91-2.64,0-4.51-2.01-4.51-4.72s1.87-4.72,4.5-4.72c2.15,0,3.54,1.12,4.04,2.87v.02Z" style="fill: #767676; stroke-width: 0px;"/>
              <path d="M15.56,392.67c1.4,0,2.13,1.01,2.13,2.46v4.24h-1.13v-4.06c0-1.01-.48-1.55-1.27-1.55-.86,0-1.52.75-1.52,2.09v3.51h-1.12v-9.49h1.12v3.76c.25-.51.84-.96,1.79-.96h0Z" style="fill: #767676; stroke-width: 0px;"/>
              <path d="M24.12,395.03v4.34h-1.01l-.05-.9c-.33.58-1.03,1.04-1.99,1.04-1.14,0-1.91-.7-1.91-1.85s.81-1.7,1.83-1.9l2-.38v-.32c0-.94-.43-1.35-1.21-1.35-.71,0-1.34.39-1.34,1.2h-1.1c.04-1.26,1-2.24,2.44-2.24s2.34.83,2.34,2.35h0ZM20.28,397.65c0,.52.36.82,1,.82.55,0,1.03-.23,1.33-.65.22-.3.38-.75.38-1.21v-.25l-1.79.39c-.49.12-.91.31-.91.9h-.01Z" style="fill: #767676; stroke-width: 0px;"/>
              <path d="M27.73,394.35c-.35.33-.58.83-.6,1.55v3.47h-1.12v-6.55h1l.08,1.14c.22-.6.83-1.21,1.96-1.21v1.12c-.52,0-.96.14-1.33.48h.01Z" style="fill: #767676; stroke-width: 0px;"/>
              <path d="M33.57,392.82v1.04h-1.69l-.03,3.51c0,.71.18,1.07.94,1.07.36,0,.58-.05.78-.12v1c-.2.08-.49.14-.98.14-1.23,0-1.87-.55-1.86-1.88l.03-3.72h-1.22v-1.04h1.22v-1.64h1.14v1.64h1.67Z" style="fill: #767676; stroke-width: 0px;"/>
              <path d="M36.17,393.49c0,.46-.36.81-.82.81s-.82-.35-.82-.81.35-.82.82-.82.82.35.82.82ZM36.17,398.71c0,.46-.36.81-.82.81s-.82-.35-.82-.81.35-.81.82-.81.82.34.82.81Z" style="fill: #767676; stroke-width: 0px;"/>
            </g>
          </g>
        </g>
        <g style="isolation: isolate;">
          <g style="isolation: isolate;">
            <g style="isolation: isolate;">
              <path d="M55.49,392.97h-1.31c-.38-1.05-1.23-1.77-2.73-1.77-1.92,0-3.26,1.53-3.26,3.61s1.34,3.61,3.28,3.61c1.51,0,2.41-.77,2.77-1.81h1.27c-.51,1.83-1.9,2.91-4.04,2.91-2.64,0-4.51-2.01-4.51-4.72s1.87-4.72,4.5-4.72c2.15,0,3.54,1.12,4.04,2.87v.02Z" style="fill: #767676; stroke-width: 0px;"/>
              <path d="M58.07,391.37v2.87h3.16v1.12h-3.16v4h-1.18v-9.1h4.9v1.11h-3.72Z" style="fill: #767676; stroke-width: 0px;"/>
              <path d="M67.61,399.37l-1.99-3.69h-1.33v3.69h-1.18v-9.1h2.48c1.82,0,2.98,1.09,2.98,2.74,0,1.2-.64,2.09-1.72,2.47l2.11,3.89h-1.35ZM64.3,394.61h1.3c1.05,0,1.78-.57,1.78-1.6s-.71-1.64-1.78-1.64h-1.3v3.24h0Z" style="fill: #767676; stroke-width: 0px;"/>
              <path d="M69.27,399.37l3.84-9.1h1.1l-3.83,9.1s-1.11,0-1.11,0Z" style="fill: #767676; stroke-width: 0px;"/>
              <path d="M81.42,399.37l-.96-2.41h-4.02l-.95,2.41h-1.3l3.65-9.1h1.22l3.65,9.1h-1.3,0ZM76.85,395.86h3.21l-1.44-3.58-.17-.49-.17.49-1.43,3.58Z" style="fill: #767676; stroke-width: 0px;"/>
              <path d="M83.92,399.37v-9.49h1.12v9.49h-1.12Z" style="fill: #767676; stroke-width: 0px;"/>
              <path d="M86.99,399.37v-9.49h1.12v9.49h-1.12Z" style="fill: #767676; stroke-width: 0px;"/>
              <path d="M91.43,390.8c0,.42-.35.75-.78.75s-.77-.34-.77-.75.34-.77.77-.77.78.34.78.77ZM90.1,399.37v-6.55h1.12v6.55h-1.12Z" style="fill: #767676; stroke-width: 0px;"/>
              <path d="M97.22,394.74h-1.14c-.01-.69-.34-1.03-1.04-1.03s-1,.4-1,.88c0,.51.26.71,1.23.95,1.56.36,2.15.91,2.15,1.96,0,1.27-.99,2-2.3,2-1.52,0-2.37-.86-2.39-2.13h1.14c.01.69.46,1.09,1.27,1.09.75,0,1.13-.38,1.13-.88,0-.55-.29-.81-1.36-1.05-1.37-.31-2.02-.79-2.02-1.87s.75-1.99,2.17-1.99c1.27,0,2.13.83,2.16,2.07h0Z" style="fill: #767676; stroke-width: 0px;"/>
              <path d="M105.02,396.09c0,1.99-1.37,3.42-3.32,3.42s-3.33-1.43-3.33-3.42,1.37-3.42,3.33-3.42,3.32,1.43,3.32,3.42ZM99.54,396.09c0,1.35.87,2.38,2.18,2.38s2.15-1.03,2.15-2.38-.85-2.38-2.15-2.38-2.18,1.01-2.18,2.38Z" style="fill: #767676; stroke-width: 0px;"/>
              <path d="M111.52,395.13v4.24h-1.13v-4.06c0-1.01-.48-1.55-1.27-1.55-.86,0-1.52.75-1.52,2.09v3.51h-1.12v-6.55h1l.06.9c.3-.57.92-1.04,1.85-1.04,1.4,0,2.13,1.01,2.13,2.46Z" style="fill: #767676; stroke-width: 0px;"/>
              <path d="M123.5,399.37h-1.5l-3.12-4.12-1.57,1.91v2.21h-1.18v-9.1h1.18v5.15l4.04-5.15h1.48l-3.19,4.04,3.85,5.06h.01Z" style="fill: #767676; stroke-width: 0px;"/>
              <path d="M126.37,394.35c-.35.33-.58.83-.6,1.55v3.47h-1.12v-6.55h1l.08,1.14c.22-.6.83-1.21,1.96-1.21v1.12c-.52,0-.96.14-1.33.48h.01Z" style="fill: #767676; stroke-width: 0px;"/>
              <path d="M132.86,399.37l-.06-.9c-.3.62-.9,1.04-1.81,1.04-1.42,0-2.11-1-2.11-2.46v-4.24h1.12v4.06c0,1.03.46,1.56,1.25,1.56.85,0,1.5-.72,1.5-1.98v-3.64h1.12v6.55h-1.01Z" style="fill: #767676; stroke-width: 0px;"/>
              <path d="M141.4,393.8h-1.13c.2.35.31.77.31,1.22,0,1.3-.98,2.33-2.5,2.33-.55,0-1.03-.13-1.4-.35-.16.14-.27.36-.27.65,0,.43.34.66.83.66h1.74c1.39,0,2.07.69,2.07,1.78,0,1.39-1.05,2.21-2.73,2.21-1.86,0-2.86-.75-2.86-2.04,0-.62.34-.98.71-1.18-.44-.22-.87-.7-.87-1.37,0-.6.3-1.05.68-1.34-.27-.38-.42-.84-.42-1.35,0-1.35.99-2.35,2.52-2.35.34,0,.65.05.94.14h2.38v.99h0ZM136.57,400.23c0,.71.65,1.09,1.75,1.09,1.01,0,1.63-.39,1.63-1.17,0-.61-.46-.85-1.18-.85h-1.25c-.49.03-.95.29-.95.92h0ZM139.48,395.03c0-.78-.53-1.37-1.4-1.37s-1.4.58-1.4,1.37.55,1.34,1.4,1.34,1.4-.58,1.4-1.34Z" style="fill: #767676; stroke-width: 0px;"/>
              <path d="M151.19,395.13v4.24h-1.12v-4.06c0-1.01-.47-1.55-1.26-1.55-.86,0-1.51.75-1.51,2.09v3.51h-1.12v-4.06c0-1.01-.47-1.55-1.26-1.55-.86,0-1.51.75-1.51,2.09v3.51h-1.12v-6.55h1l.06.9c.3-.57.92-1.04,1.82-1.04.97,0,1.61.48,1.91,1.25.34-.65.96-1.25,1.98-1.25,1.42,0,2.12,1.01,2.12,2.46h0Z" style="fill: #767676; stroke-width: 0px;"/>
              <path d="M157.62,395.03v4.34h-1.01l-.05-.9c-.33.58-1.03,1.04-1.99,1.04-1.14,0-1.91-.7-1.91-1.85s.81-1.7,1.83-1.9l2-.38v-.32c0-.94-.43-1.35-1.21-1.35-.71,0-1.34.39-1.34,1.2h-1.1c.04-1.26,1-2.24,2.44-2.24s2.34.83,2.34,2.35h0ZM153.78,397.65c0,.52.36.82,1,.82.55,0,1.03-.23,1.33-.65.22-.3.38-.75.38-1.21v-.25l-1.79.39c-.49.12-.91.31-.91.9h-.01Z" style="fill: #767676; stroke-width: 0px;"/>
              <path d="M164.48,395.13v4.24h-1.13v-4.06c0-1.01-.48-1.55-1.27-1.55-.86,0-1.52.75-1.52,2.09v3.51h-1.12v-6.55h1l.06.9c.3-.57.92-1.04,1.85-1.04,1.4,0,2.13,1.01,2.13,2.46Z" style="fill: #767676; stroke-width: 0px;"/>
              <path d="M172.14,396c0,1.04-.81,1.83-1.85,1.83s-1.83-.79-1.83-1.83.79-1.85,1.83-1.85,1.85.81,1.85,1.85Z" style="fill: #767676; stroke-width: 0px;"/>
              <path d="M181.32,392.67h-1.2c0-.97-.62-1.51-1.5-1.51s-1.4.51-1.4,1.38.57,1.18,1.81,1.68c1.83.68,2.57,1.34,2.57,2.68,0,1.66-1.17,2.64-2.82,2.64-1.92,0-2.99-1.16-3.02-2.85h1.2c.03,1.16.69,1.79,1.83,1.79,1.07,0,1.61-.65,1.61-1.51,0-.78-.55-1.2-1.91-1.68-1.55-.57-2.47-1.2-2.47-2.67s.94-2.54,2.63-2.54c1.59,0,2.63.88,2.67,2.57v.02Z" style="fill: #767676; stroke-width: 0px;"/>
              <path d="M189.18,396.09c0,1.99-1.37,3.42-3.32,3.42s-3.33-1.43-3.33-3.42,1.37-3.42,3.33-3.42,3.32,1.43,3.32,3.42ZM183.69,396.09c0,1.35.87,2.38,2.18,2.38s2.15-1.03,2.15-2.38-.85-2.38-2.15-2.38-2.18,1.01-2.18,2.38Z" style="fill: #767676; stroke-width: 0px;"/>
              <path d="M194.49,399.37l-.06-.9c-.3.62-.9,1.04-1.81,1.04-1.42,0-2.11-1-2.11-2.46v-4.24h1.12v4.06c0,1.03.46,1.56,1.25,1.56.85,0,1.5-.72,1.5-1.98v-3.64h1.12v6.55h-1.01Z" style="fill: #767676; stroke-width: 0px;"/>
              <path d="M199.24,394.35c-.35.33-.58.83-.6,1.55v3.47h-1.12v-6.55h1l.08,1.14c.22-.6.83-1.21,1.96-1.21v1.12c-.52,0-.96.14-1.33.48h0Z" style="fill: #767676; stroke-width: 0px;"/>
              <path d="M207.28,394.86h-1.12c-.26-.73-.94-1.14-1.78-1.14-1.17,0-2.04,1-2.04,2.39s.87,2.37,2.07,2.37c.83,0,1.52-.44,1.76-1.14h1.13c-.35,1.43-1.5,2.18-2.93,2.18-1.85,0-3.19-1.43-3.19-3.41s1.34-3.43,3.19-3.43c1.44,0,2.6.75,2.91,2.18h0Z" style="fill: #767676; stroke-width: 0px;"/>
              <path d="M214.34,396.54h-4.97c.08,1.21.9,1.94,2.01,1.94.87,0,1.51-.38,1.77-1.07h1.12c-.39,1.3-1.4,2.11-2.91,2.11-1.85,0-3.16-1.34-3.16-3.41s1.25-3.43,3.16-3.43c1.72,0,2.98,1.12,2.98,3.33v.53h0ZM213.2,395.53c0-1.12-.75-1.82-1.85-1.82s-1.86.77-1.99,1.82h3.84Z" style="fill: #767676; stroke-width: 0px;"/>
              <path d="M216.92,393.49c0,.46-.36.81-.82.81s-.82-.35-.82-.81.35-.82.82-.82.82.35.82.82ZM216.92,398.71c0,.46-.36.81-.82.81s-.82-.35-.82-.81.35-.81.82-.81.82.34.82.81Z" style="fill: #767676; stroke-width: 0px;"/>
              <path d="M226.29,398.26v1.11h-5.24v-9.1h1.18v8h4.06Z" style="fill: #767676; stroke-width: 0px;"/>
              <path d="M233.66,396.09c0,1.99-1.37,3.42-3.32,3.42s-3.33-1.43-3.33-3.42,1.37-3.42,3.33-3.42,3.32,1.43,3.32,3.42ZM228.17,396.09c0,1.35.87,2.38,2.18,2.38s2.15-1.03,2.15-2.38-.85-2.38-2.15-2.38-2.18,1.01-2.18,2.38Z" style="fill: #767676; stroke-width: 0px;"/>
              <path d="M240.16,395.13v4.24h-1.13v-4.06c0-1.01-.48-1.55-1.27-1.55-.86,0-1.52.75-1.52,2.09v3.51h-1.12v-6.55h1l.06.9c.3-.57.92-1.04,1.85-1.04,1.4,0,2.13,1.01,2.13,2.46Z" style="fill: #767676; stroke-width: 0px;"/>
              <path d="M246.84,399.37l-.06-.96c-.4.58-1.07,1.1-2.25,1.1-1.85,0-3.06-1.48-3.06-3.42s1.22-3.42,3.07-3.42c1.09,0,1.82.48,2.18,1.04v-3.83h1.12v9.49h-1ZM242.63,396.09c0,1.39.82,2.37,2.07,2.37,1.07,0,2.04-.88,2.04-2.3v-.07c0-1.46-.99-2.35-2.03-2.35-1.22,0-2.08.97-2.08,2.35Z" style="fill: #767676; stroke-width: 0px;"/>
              <path d="M255.91,396.09c0,1.99-1.37,3.42-3.32,3.42s-3.33-1.43-3.33-3.42,1.37-3.42,3.33-3.42,3.32,1.43,3.32,3.42ZM250.42,396.09c0,1.35.87,2.38,2.18,2.38s2.15-1.03,2.15-2.38-.85-2.38-2.15-2.38-2.18,1.01-2.18,2.38Z" style="fill: #767676; stroke-width: 0px;"/>
              <path d="M262.41,395.13v4.24h-1.13v-4.06c0-1.01-.48-1.55-1.27-1.55-.86,0-1.52.75-1.52,2.09v3.51h-1.12v-6.55h1l.06.9c.3-.57.92-1.04,1.85-1.04,1.4,0,2.13,1.01,2.13,2.46h0Z" style="fill: #767676; stroke-width: 0px;"/>
              <path d="M272,392.67h-1.2c-.01-.97-.62-1.51-1.5-1.51s-1.4.51-1.4,1.38.57,1.18,1.81,1.68c1.83.68,2.57,1.34,2.57,2.68,0,1.66-1.17,2.64-2.82,2.64-1.92,0-2.99-1.16-3.02-2.85h1.2c.03,1.16.69,1.79,1.83,1.79,1.07,0,1.61-.65,1.61-1.51,0-.78-.55-1.2-1.91-1.68-1.55-.57-2.47-1.2-2.47-2.67s.94-2.54,2.63-2.54c1.59,0,2.63.88,2.67,2.57v.02Z" style="fill: #767676; stroke-width: 0px;"/>
              <path d="M279.31,394.86h-1.12c-.26-.73-.94-1.14-1.78-1.14-1.17,0-2.04,1-2.04,2.39s.87,2.37,2.07,2.37c.83,0,1.52-.44,1.76-1.14h1.13c-.35,1.43-1.5,2.18-2.93,2.18-1.85,0-3.19-1.43-3.19-3.41s1.34-3.43,3.19-3.43c1.44,0,2.6.75,2.91,2.18h0Z" style="fill: #767676; stroke-width: 0px;"/>
              <path d="M283.65,392.67c1.4,0,2.13,1.01,2.13,2.46v4.24h-1.13v-4.06c0-1.01-.48-1.55-1.27-1.55-.86,0-1.52.75-1.52,2.09v3.51h-1.12v-9.49h1.12v3.76c.25-.51.84-.96,1.79-.96h0Z" style="fill: #767676; stroke-width: 0px;"/>
              <path d="M293.74,396.09c0,1.99-1.37,3.42-3.32,3.42s-3.33-1.43-3.33-3.42,1.37-3.42,3.33-3.42,3.32,1.43,3.32,3.42ZM288.26,396.09c0,1.35.87,2.38,2.18,2.38s2.15-1.03,2.15-2.38-.85-2.38-2.15-2.38-2.18,1.01-2.18,2.38Z" style="fill: #767676; stroke-width: 0px;"/>
              <path d="M301.42,396.09c0,1.99-1.37,3.42-3.32,3.42s-3.33-1.43-3.33-3.42,1.37-3.42,3.33-3.42,3.32,1.43,3.32,3.42ZM295.93,396.09c0,1.35.87,2.38,2.18,2.38s2.15-1.03,2.15-2.38-.85-2.38-2.15-2.38-2.18,1.01-2.18,2.38Z" style="fill: #767676; stroke-width: 0px;"/>
              <path d="M302.85,399.37v-9.49h1.12v9.49h-1.12Z" style="fill: #767676; stroke-width: 0px;"/>
              <path d="M314.68,396.09c0,1.99-1.37,3.42-3.32,3.42s-3.33-1.43-3.33-3.42,1.37-3.42,3.33-3.42,3.32,1.43,3.32,3.42ZM309.19,396.09c0,1.35.87,2.38,2.18,2.38s2.15-1.03,2.15-2.38-.85-2.38-2.15-2.38-2.18,1.01-2.18,2.38Z" style="fill: #767676; stroke-width: 0px;"/>
              <path d="M319.33,389.92v1.01c-.22-.09-.46-.16-.79-.16-.57,0-.92.34-.92,1.07v.97h1.63v1.03h-1.63v5.53h-1.13v-5.53h-1.18v-1.03h1.18v-1c0-1.3.71-2.05,1.96-2.05.39,0,.7.08.88.16h0Z" style="fill: #767676; stroke-width: 0px;"/>
              <path d="M329.07,399.37v-4.15h-4.81v4.15h-1.18v-9.1h1.18v3.83h4.81v-3.83h1.18v9.1h-1.18Z" style="fill: #767676; stroke-width: 0px;"/>
              <path d="M332.82,402.16l1.09-2.89-2.46-6.46h1.2l1.73,4.71.13.49.13-.49,1.73-4.71h1.21l-3.58,9.35h-1.18Z" style="fill: #767676; stroke-width: 0px;"/>
              <path d="M344.18,393.8h-1.13c.2.35.31.77.31,1.22,0,1.3-.98,2.33-2.5,2.33-.55,0-1.03-.13-1.4-.35-.16.14-.27.36-.27.65,0,.43.34.66.83.66h1.74c1.39,0,2.07.69,2.07,1.78,0,1.39-1.05,2.21-2.73,2.21-1.86,0-2.86-.75-2.86-2.04,0-.62.34-.98.71-1.18-.44-.22-.87-.7-.87-1.37,0-.6.3-1.05.68-1.34-.27-.38-.42-.84-.42-1.35,0-1.35.99-2.35,2.52-2.35.34,0,.65.05.94.14h2.38v.99h0ZM339.35,400.23c0,.71.65,1.09,1.75,1.09,1.01,0,1.63-.39,1.63-1.17,0-.61-.46-.85-1.18-.85h-1.25c-.49.03-.95.29-.95.92h0ZM342.26,395.03c0-.78-.53-1.37-1.4-1.37s-1.4.58-1.4,1.37.55,1.34,1.4,1.34,1.4-.58,1.4-1.34Z" style="fill: #767676; stroke-width: 0px;"/>
              <path d="M346.46,390.8c0,.42-.35.75-.78.75s-.77-.34-.77-.75.34-.77.77-.77.78.34.78.77ZM345.12,399.37v-6.55h1.12v6.55h-1.12Z" style="fill: #767676; stroke-width: 0px;"/>
              <path d="M353.83,396.54h-4.97c.08,1.21.9,1.94,2.02,1.94.87,0,1.51-.38,1.77-1.07h1.12c-.39,1.3-1.4,2.11-2.91,2.11-1.85,0-3.16-1.34-3.16-3.41s1.25-3.43,3.16-3.43c1.72,0,2.98,1.12,2.98,3.33v.53h0ZM352.7,395.53c-.01-1.12-.75-1.82-1.85-1.82s-1.86.77-1.99,1.82h3.84Z" style="fill: #767676; stroke-width: 0px;"/>
              <path d="M360.32,395.13v4.24h-1.13v-4.06c0-1.01-.48-1.55-1.27-1.55-.86,0-1.52.75-1.52,2.09v3.51h-1.12v-6.55h1l.06.9c.3-.57.92-1.04,1.85-1.04,1.4,0,2.13,1.01,2.13,2.46h0Z" style="fill: #767676; stroke-width: 0px;"/>
              <path d="M367.77,396.54h-4.97c.08,1.21.9,1.94,2.01,1.94.87,0,1.51-.38,1.77-1.07h1.12c-.39,1.3-1.4,2.11-2.91,2.11-1.85,0-3.16-1.34-3.16-3.41s1.25-3.43,3.16-3.43c1.72,0,2.98,1.12,2.98,3.33v.53h0ZM366.64,395.53c-.01-1.12-.75-1.82-1.85-1.82s-1.86.77-1.99,1.82h3.84Z" style="fill: #767676; stroke-width: 0px;"/>
              <path d="M376.44,395.03v4.34h-1.01l-.05-.9c-.33.58-1.03,1.04-1.99,1.04-1.14,0-1.91-.7-1.91-1.85s.81-1.7,1.83-1.9l2-.38v-.32c0-.94-.43-1.35-1.21-1.35-.71,0-1.34.39-1.34,1.2h-1.11c.04-1.26,1-2.24,2.44-2.24s2.34.83,2.34,2.35h0ZM372.61,397.65c0,.52.36.82,1,.82.55,0,1.03-.23,1.33-.65.22-.3.38-.75.38-1.21v-.25l-1.79.39c-.49.12-.91.31-.91.9h0Z" style="fill: #767676; stroke-width: 0px;"/>
              <path d="M383.31,395.13v4.24h-1.13v-4.06c0-1.01-.48-1.55-1.27-1.55-.86,0-1.52.75-1.52,2.09v3.51h-1.12v-6.55h1l.06.9c.3-.57.92-1.04,1.85-1.04,1.4,0,2.13,1.01,2.13,2.46h0Z" style="fill: #767676; stroke-width: 0px;"/>
              <path d="M389.99,399.37l-.07-.96c-.4.58-1.07,1.1-2.25,1.1-1.85,0-3.05-1.48-3.05-3.42s1.22-3.42,3.07-3.42c1.09,0,1.82.48,2.18,1.04v-3.83h1.12v9.49h-1ZM385.78,396.09c0,1.39.82,2.37,2.07,2.37,1.07,0,2.04-.88,2.04-2.3v-.07c0-1.46-.99-2.35-2.03-2.35-1.22,0-2.08.97-2.08,2.35h0Z" style="fill: #767676; stroke-width: 0px;"/>
              <path d="M399.15,391.37v8h-1.18v-8h-3.22v-1.11h7.63v1.11h-3.23Z" style="fill: #767676; stroke-width: 0px;"/>
              <path d="M404.05,394.35c-.35.33-.59.83-.6,1.55v3.47h-1.12v-6.55h1l.08,1.14c.22-.6.83-1.21,1.96-1.21v1.12c-.52,0-.96.14-1.33.48h.01Z" style="fill: #767676; stroke-width: 0px;"/>
              <path d="M412.63,396.09c0,1.99-1.36,3.42-3.31,3.42s-3.33-1.43-3.33-3.42,1.36-3.42,3.33-3.42,3.31,1.43,3.31,3.42ZM407.14,396.09c0,1.35.87,2.38,2.18,2.38s2.14-1.03,2.14-2.38-.84-2.38-2.14-2.38-2.18,1.01-2.18,2.38Z" style="fill: #767676; stroke-width: 0px;"/>
              <path d="M420.52,396.09c0,1.94-1.22,3.42-3.07,3.42-1.09,0-1.82-.48-2.17-1.04v3.69h-1.13v-9.35h1.01l.05.96c.4-.58,1.07-1.11,2.25-1.11,1.85,0,3.06,1.48,3.06,3.42h0ZM415.26,396.03v.06c0,1.46.99,2.35,2.03,2.35,1.22,0,2.08-.98,2.08-2.35s-.82-2.37-2.07-2.37c-1.07,0-2.04.88-2.04,2.3h0Z" style="fill: #767676; stroke-width: 0px;"/>
              <path d="M423.33,390.8c0,.42-.35.75-.78.75s-.77-.34-.77-.75.34-.77.77-.77.78.34.78.77ZM421.99,399.37v-6.55h1.12v6.55h-1.12Z" style="fill: #767676; stroke-width: 0px;"/>
              <path d="M430.66,394.86h-1.12c-.26-.73-.94-1.14-1.78-1.14-1.17,0-2.04,1-2.04,2.39s.87,2.37,2.07,2.37c.83,0,1.52-.44,1.75-1.14h1.13c-.35,1.43-1.5,2.18-2.93,2.18-1.85,0-3.18-1.43-3.18-3.41s1.34-3.43,3.18-3.43c1.44,0,2.6.75,2.91,2.18h0Z" style="fill: #767676; stroke-width: 0px;"/>
              <path d="M436.67,395.03v4.34h-1.01l-.05-.9c-.33.58-1.03,1.04-1.99,1.04-1.14,0-1.91-.7-1.91-1.85s.81-1.7,1.83-1.9l2-.38v-.32c0-.94-.43-1.35-1.21-1.35-.71,0-1.34.39-1.34,1.2h-1.11c.04-1.26,1-2.24,2.44-2.24s2.34.83,2.34,2.35h0ZM432.84,397.65c0,.52.36.82,1,.82.55,0,1.03-.23,1.33-.65.22-.3.38-.75.38-1.21v-.25l-1.79.39c-.49.12-.91.31-.91.9h0Z" style="fill: #767676; stroke-width: 0px;"/>
              <path d="M438.49,399.37v-9.49h1.12v9.49h-1.12Z" style="fill: #767676; stroke-width: 0px;"/>
              <path d="M452.42,399.37v-6.77l-.25.68-2.78,6.1h-.95l-2.77-6.1-.25-.68v6.77h-1.18v-9.1h1.3l3.12,6.68.25.58.26-.58,3.13-6.68h1.3v9.1h-1.18Z" style="fill: #767676; stroke-width: 0px;"/>
              <path d="M461.17,396.54h-4.97c.08,1.21.9,1.94,2.01,1.94.87,0,1.51-.38,1.77-1.07h1.12c-.39,1.3-1.4,2.11-2.91,2.11-1.85,0-3.16-1.34-3.16-3.41s1.25-3.43,3.16-3.43c1.72,0,2.98,1.12,2.98,3.33v.53h0ZM460.04,395.53c-.01-1.12-.75-1.82-1.85-1.82s-1.86.77-1.99,1.82h3.84Z" style="fill: #767676; stroke-width: 0px;"/>
              <path d="M467.53,399.37l-.07-.96c-.4.58-1.07,1.1-2.25,1.1-1.85,0-3.05-1.48-3.05-3.42s1.22-3.42,3.07-3.42c1.09,0,1.82.48,2.18,1.04v-3.83h1.12v9.49h-1ZM463.31,396.09c0,1.39.82,2.37,2.07,2.37,1.07,0,2.04-.88,2.04-2.3v-.07c0-1.46-.99-2.35-2.03-2.35-1.22,0-2.08.97-2.08,2.35h0Z" style="fill: #767676; stroke-width: 0px;"/>
              <path d="M471.86,390.8c0,.42-.35.75-.78.75s-.77-.34-.77-.75.34-.77.77-.77.78.34.78.77ZM470.52,399.37v-6.55h1.12v6.55h-1.12Z" style="fill: #767676; stroke-width: 0px;"/>
              <path d="M479.19,394.86h-1.12c-.26-.73-.94-1.14-1.78-1.14-1.17,0-2.04,1-2.04,2.39s.87,2.37,2.07,2.37c.83,0,1.52-.44,1.75-1.14h1.13c-.35,1.43-1.49,2.18-2.92,2.18-1.85,0-3.18-1.43-3.18-3.41s1.34-3.43,3.18-3.43c1.44,0,2.6.75,2.91,2.18h0Z" style="fill: #767676; stroke-width: 0px;"/>
              <path d="M482,390.8c0,.42-.35.75-.78.75s-.77-.34-.77-.75.34-.77.77-.77.78.34.78.77ZM480.66,399.37v-6.55h1.12v6.55h-1.12Z" style="fill: #767676; stroke-width: 0px;"/>
              <path d="M488.81,395.13v4.24h-1.13v-4.06c0-1.01-.48-1.55-1.27-1.55-.86,0-1.52.75-1.52,2.09v3.51h-1.12v-6.55h1l.07.9c.3-.57.92-1.04,1.85-1.04,1.4,0,2.13,1.01,2.13,2.46h-.01Z" style="fill: #767676; stroke-width: 0px;"/>
              <path d="M496.26,396.54h-4.97c.08,1.21.9,1.94,2.01,1.94.87,0,1.51-.38,1.77-1.07h1.12c-.39,1.3-1.4,2.11-2.91,2.11-1.85,0-3.16-1.34-3.16-3.41s1.25-3.43,3.16-3.43c1.72,0,2.98,1.12,2.98,3.33v.53h0ZM495.13,395.53c-.01-1.12-.75-1.82-1.85-1.82s-1.86.77-1.99,1.82h3.84Z" style="fill: #767676; stroke-width: 0px;"/>
              <path d="M498.66,398.78c0,.81-.42,1.69-.95,2.29l-.36-.14c.26-.46.39-.94.46-1.47-.4-.04-.7-.33-.7-.75s.34-.77.78-.77.78.32.78.84h0Z" style="fill: #767676; stroke-width: 0px;"/>
              <path d="M510.85,392.97h-1.31c-.38-1.05-1.24-1.77-2.73-1.77-1.92,0-3.26,1.53-3.26,3.61s1.34,3.61,3.28,3.61c1.51,0,2.4-.77,2.77-1.81h1.27c-.51,1.83-1.9,2.91-4.04,2.91-2.64,0-4.51-2.01-4.51-4.72s1.87-4.72,4.5-4.72c2.15,0,3.54,1.12,4.04,2.87v.02Z" style="fill: #767676; stroke-width: 0px;"/>
              <path d="M520.14,394.82c0,2.73-1.79,4.55-4.62,4.55h-3.28v-9.1h3.28c2.82,0,4.62,1.83,4.62,4.55h0ZM513.43,398.26h2.09c2.09,0,3.41-1.29,3.41-3.44s-1.29-3.45-3.41-3.45h-2.09v6.89Z" style="fill: #767676; stroke-width: 0px;"/>
              <path d="M529.86,392.97h-1.31c-.38-1.05-1.24-1.77-2.73-1.77-1.92,0-3.26,1.53-3.26,3.61s1.34,3.61,3.28,3.61c1.51,0,2.4-.77,2.77-1.81h1.27c-.51,1.83-1.9,2.91-4.04,2.91-2.64,0-4.51-2.01-4.51-4.72s1.87-4.72,4.5-4.72c2.15,0,3.54,1.12,4.04,2.87v.02Z" style="fill: #767676; stroke-width: 0px;"/>
            </g>
          </g>
        </g>
      </g>
      <g id="image">
        <path d="M704.96,389.47h-6.7v1.7h2.4v8h2v-8h2.4v-1.7h-.1Z" style="fill: #000; stroke-width: 0px;"/>
        <path d="M705.36,399.27h2v-4c0-1,.3-1.5.9-1.5s.8.3.8,1.1v4.4h2v-4.6c0-1.6-.6-2.3-1.8-2.3s-1.5.4-1.8,1.3v-4.2h-2v9.8h-.1Z" style="fill: #000; stroke-width: 0px;"/>
        <path d="M711.86,391.47h2v-2h-2v2ZM711.96,399.27h1.9v-6.7h-1.9v6.7Z" style="fill: #000; stroke-width: 0px;"/>
        <path d="M714.86,399.27h2v-4c0-1,.3-1.4.9-1.4s.8.3.8,1.1v4.3h2v-4.6c0-1.6-.6-2.3-1.8-2.3s-1.5.5-1.9,1.4v-1.2h-1.9v6.7h-.1Z" style="fill: #000; stroke-width: 0px;"/>
        <path d="M725.27,399.27h2.2l-2-4.2,1.9-2.5h-2.2l-1.8,2.8v-5.8h-2v9.8h2v-2l.6-.9,1.2,2.9h0l.1-.1h0Z" style="fill: #000; stroke-width: 0px;"/>
        <path d="M732.27,399.47c1.2,0,2-.6,2.4-1.7v1.5h1.6v-5.3h-3.6v1.6h1.6v.2c0,1.3-.5,2.1-1.4,2.1s-1.6-.8-1.6-3.5.5-3.3,1.6-3.3,1.3.6,1.4,1.8l2-.4c0-1.9-1.3-3-3.4-3s-3.8,1.5-3.8,4.9,1.2,5.1,3.3,5.1h-.1Z" style="fill: #000; stroke-width: 0px;"/>
        <path d="M739.07,389.47h-2v9.8h2v-9.8Z" style="fill: #000; stroke-width: 0px;"/>
        <path d="M742.87,399.37c1.8,0,3-1,3-3.5s-1.2-3.5-3-3.5-3,1-3,3.5,1.2,3.5,3,3.5ZM742.87,397.97c-.6,0-1-.5-1-2.1s.4-2.1,1-2.1,1,.5,1,2.1-.4,2.1-1,2.1Z" style="fill: #000; stroke-width: 0px;"/>
        <path d="M750.17,399.37c1.5,0,2.3-1.1,2.3-3.5s-.8-3.5-2.2-3.5-1.5.4-1.8,1.1v-4h-2v9.8h1.8v-1.1c.4.7,1,1.2,1.8,1.2h.1ZM749.37,397.97c-.6,0-.9-.5-.9-1.4v-1.4c0-.9.4-1.4.9-1.4s.9.5.9,2.1-.3,2.1-1,2.1h.1Z" style="fill: #000; stroke-width: 0px;"/>
        <path d="M754.87,399.37c.9,0,1.7-.5,1.9-1.2v1.1h1.9v-4.5c0-1.7-.8-2.4-2.7-2.4s-2.8.7-2.9,2.4h2c0-.7.2-1.1.8-1.1s.7.3.7.9v.5l-1.3.2c-.8.1-1.4.4-1.8.7-.4.3-.6.8-.6,1.5,0,1.2.7,2,2,2h0v-.1h0ZM755.67,398.07c-.5,0-.7-.3-.7-.8s.3-.9.9-1l.8-.2v.9c0,.7-.4,1.1-1,1.1Z" style="fill: #000; stroke-width: 0px;"/>
        <path d="M761.47,389.47h-2v9.8h2v-9.8Z" style="fill: #000; stroke-width: 0px;"/>
        <path d="M770.68,389.47h-2.1v4.1h-2.7v-4.1h-2.1v9.8h2.1v-4.1h2.7v4.1h2.1v-9.8Z" style="fill: #000; stroke-width: 0px;"/>
        <path d="M777.18,395.37c0-1.9-1-3-2.9-3s-3,1.1-3,3.5,1.2,3.5,3,3.5,2.5-.7,2.7-2l-1.7-.5c0,.8-.5,1.1-1,1.1s-1.1-.5-1.1-1.7h3.9v-.9h.1ZM773.38,395.17c0-1.2.4-1.6,1-1.6s.9.3.9,1.6h-1.9Z" style="fill: #000; stroke-width: 0px;"/>
        <path d="M779.48,399.37c.9,0,1.7-.5,1.9-1.2v1.1h1.9v-4.5c0-1.7-.8-2.4-2.7-2.4s-2.8.7-2.9,2.4h2c0-.7.2-1.1.8-1.1s.7.3.7.9v.5l-1.3.2c-.8.1-1.4.4-1.8.7-.4.3-.6.8-.6,1.5,0,1.2.7,2,2,2h0v-.1h0ZM780.28,398.07c-.5,0-.7-.3-.7-.8s.3-.9.9-1l.8-.2v.9c0,.7-.4,1.1-1,1.1Z" style="fill: #000; stroke-width: 0px;"/>
        <path d="M786.08,389.47h-2v9.8h2v-9.8Z" style="fill: #000; stroke-width: 0px;"/>
        <path d="M786.48,393.87h1v3.4c0,1.4.7,2.1,2.2,2.1s.7,0,1.1-.1v-1.6h-.5c-.6,0-.8-.3-.8-.9v-2.9h1.4v-1.3h-1.4v-2.3l-2,.7v1.6h-1v1.3h0Z" style="fill: #000; stroke-width: 0px;"/>
        <path d="M791.28,399.27h2v-4c0-1,.3-1.5.9-1.5s.8.3.8,1.1v4.4h2v-4.6c0-1.6-.6-2.3-1.8-2.3s-1.5.4-1.8,1.3v-4.2h-2v9.8h-.1Z" style="fill: #000; stroke-width: 0px;"/>
      </g>
    </g>
    <g style="isolation: isolate;">
      <g style="isolation: isolate;">
        <g style="isolation: isolate;">
          <path d="M120.3,353.5l-4.66-6.73-.36-.58v7.3h-1.22v-9.38h1.19l4.64,6.7.4.62v-7.31h1.22v9.38h-1.21Z" style="fill: #1a1a1a; stroke-width: 0px;"/>
          <path d="M129.83,350.12c0,2.05-1.41,3.52-3.42,3.52s-3.43-1.47-3.43-3.52,1.41-3.52,3.43-3.52,3.42,1.47,3.42,3.52ZM124.18,350.12c0,1.39.9,2.45,2.25,2.45s2.21-1.06,2.21-2.45-.87-2.45-2.21-2.45-2.25,1.04-2.25,2.45Z" style="fill: #1a1a1a; stroke-width: 0px;"/>
          <path d="M132.86,353.5l-2.57-6.75h1.23l1.78,4.85.13.51.13-.51,1.78-4.85h1.25l-2.59,6.75h-1.15,0Z" style="fill: #1a1a1a; stroke-width: 0px;"/>
        </g>
      </g>
    </g>
    <g style="isolation: isolate;">
      <g style="isolation: isolate;">
        <g style="isolation: isolate;">
          <path d="M242.72,348.91c0,2.81-1.85,4.69-4.76,4.69h-3.38v-9.38h3.38c2.91,0,4.76,1.89,4.76,4.69ZM235.8,352.46h2.16c2.16,0,3.51-1.33,3.51-3.55s-1.33-3.55-3.51-3.55h-2.16v7.1h0Z" style="fill: #1a1a1a; stroke-width: 0px;"/>
          <path d="M250.08,350.68h-5.12c.08,1.25.92,2,2.08,2,.9,0,1.55-.39,1.82-1.1h1.15c-.4,1.34-1.45,2.17-3,2.17-1.9,0-3.26-1.38-3.26-3.51s1.29-3.54,3.26-3.54c1.77,0,3.07,1.15,3.07,3.43v.55h0ZM248.91,349.65c0-1.15-.78-1.88-1.9-1.88s-1.92.79-2.05,1.88h3.95Z" style="fill: #1a1a1a; stroke-width: 0px;"/>
          <path d="M257.38,348.95h-1.15c-.27-.75-.96-1.18-1.84-1.18-1.21,0-2.1,1.03-2.1,2.47s.9,2.44,2.13,2.44c.86,0,1.57-.46,1.81-1.18h1.17c-.36,1.47-1.54,2.25-3.01,2.25-1.9,0-3.28-1.47-3.28-3.51s1.38-3.54,3.28-3.54c1.49,0,2.68.78,3,2.25h-.01Z" style="fill: #1a1a1a; stroke-width: 0px;"/>
        </g>
      </g>
    </g>
    <g style="isolation: isolate;">
      <g style="isolation: isolate;">
        <g style="isolation: isolate;">
          <path d="M358.12,352.73c-1.89,0-2.72-1.18-2.79-2.97h1.22c.05,1.22.58,1.83,1.57,1.83.91,0,1.41-.62,1.41-1.74v-6.63h1.22v6.69c0,1.86-.95,2.83-2.63,2.83h0Z" style="fill: #1a1a1a; stroke-width: 0px;"/>
          <path d="M367.38,348.12v4.47h-1.04l-.05-.92c-.33.6-1.06,1.07-2.05,1.07-1.18,0-1.97-.72-1.97-1.9s.83-1.75,1.89-1.96l2.06-.39v-.33c0-.96-.44-1.39-1.25-1.39-.74,0-1.38.4-1.38,1.23h-1.14c.04-1.3,1.03-2.3,2.52-2.3s2.41.86,2.41,2.42h0ZM363.43,350.83c0,.54.38.84,1.03.84.56,0,1.06-.24,1.37-.67.23-.31.39-.78.39-1.25v-.25l-1.85.4c-.51.12-.94.32-.94.92h0Z" style="fill: #1a1a1a; stroke-width: 0px;"/>
          <path d="M374.45,348.23v4.37h-1.17v-4.18c0-1.04-.5-1.59-1.31-1.59-.88,0-1.57.78-1.57,2.16v3.62h-1.15v-6.75h1.03l.07.92c.31-.59.95-1.07,1.9-1.07,1.45,0,2.2,1.04,2.2,2.53h0Z" style="fill: #1a1a1a; stroke-width: 0px;"/>
        </g>
      </g>
    </g>
    <g style="isolation: isolate;">
      <g style="isolation: isolate;">
        <g style="isolation: isolate;">
          <path d="M462.96,344.96v2.96h3.25v1.15h-3.25v4.13h-1.22v-9.38h5.05v1.14h-3.83Z" style="fill: #1a1a1a; stroke-width: 0px;"/>
          <path d="M473.73,350.28h-5.12c.08,1.25.92,2,2.08,2,.9,0,1.55-.39,1.82-1.1h1.15c-.4,1.34-1.45,2.17-3,2.17-1.9,0-3.26-1.38-3.26-3.51s1.29-3.54,3.26-3.54c1.77,0,3.07,1.15,3.07,3.43v.55h0ZM472.57,349.25c-.01-1.15-.78-1.88-1.9-1.88s-1.92.79-2.05,1.88h3.95,0Z" style="fill: #1a1a1a; stroke-width: 0px;"/>
          <path d="M478.62,346.3c1.9,0,3.16,1.53,3.16,3.52s-1.25,3.52-3.15,3.52c-1.22,0-1.9-.54-2.32-1.14l-.07.99h-1.03v-9.78h1.15v3.95c.38-.58,1.12-1.07,2.25-1.07h.01ZM476.36,349.82v.07c0,1.46,1,2.37,2.1,2.37,1.29,0,2.13-1,2.13-2.44s-.88-2.42-2.14-2.42c-1.07,0-2.09.92-2.09,2.42Z" style="fill: #1a1a1a; stroke-width: 0px;"/>
        </g>
      </g>
    </g>
    <g style="isolation: isolate;">
      <g style="isolation: isolate;">
        <g style="isolation: isolate;">
          <path d="M568.89,353v-6.98l-.25.7-2.87,6.28h-.98l-2.85-6.28-.25-.7v6.98h-1.22v-9.38h1.34l3.22,6.89.25.6.27-.6,3.23-6.89h1.34v9.38h-1.23Z" style="fill: #1a1a1a; stroke-width: 0px;"/>
          <path d="M576.85,348.53v4.47h-1.04l-.05-.92c-.33.6-1.06,1.07-2.05,1.07-1.18,0-1.97-.72-1.97-1.9s.83-1.75,1.89-1.96l2.06-.39v-.33c0-.96-.44-1.39-1.25-1.39-.74,0-1.38.4-1.38,1.23h-1.14c.04-1.3,1.03-2.3,2.52-2.3s2.41.86,2.41,2.42h0ZM572.9,351.23c0,.54.38.84,1.03.84.56,0,1.06-.24,1.37-.67.23-.31.39-.78.39-1.25v-.25l-1.85.4c-.51.12-.94.32-.94.92h0Z" style="fill: #1a1a1a; stroke-width: 0px;"/>
          <path d="M580.58,347.83c-.36.33-.6.86-.62,1.59v3.58h-1.15v-6.75h1.03l.08,1.18c.23-.62.86-1.25,2.02-1.25v1.15c-.54,0-.99.15-1.37.5h0Z" style="fill: #1a1a1a; stroke-width: 0px;"/>
        </g>
      </g>
    </g>
    <g style="isolation: isolate;">
      <g style="isolation: isolate;">
        <g style="isolation: isolate;">
          <path d="M658.13,353.8l-.99-2.48h-4.14l-.98,2.48h-1.34l3.76-9.38h1.26l3.76,9.38h-1.34.01ZM653.41,350.18h3.31l-1.49-3.68-.17-.51-.17.51-1.47,3.68h-.01Z" style="fill: #1a1a1a; stroke-width: 0px;"/>
          <path d="M667.36,350.42c0,2-1.26,3.52-3.16,3.52-1.12,0-1.88-.5-2.24-1.07v3.81h-1.17v-9.63h1.04l.05.99c.42-.6,1.1-1.14,2.32-1.14,1.9,0,3.15,1.53,3.15,3.52h0ZM661.93,350.36v.07c0,1.5,1.02,2.42,2.09,2.42,1.26,0,2.14-1,2.14-2.42s-.84-2.44-2.13-2.44c-1.1,0-2.1.91-2.1,2.37h0Z" style="fill: #1a1a1a; stroke-width: 0px;"/>
          <path d="M670.71,348.63c-.36.33-.6.86-.62,1.59v3.58h-1.15v-6.75h1.03l.08,1.18c.23-.62.86-1.25,2.02-1.25v1.15c-.54,0-.99.15-1.37.5h0Z" style="fill: #1a1a1a; stroke-width: 0px;"/>
        </g>
      </g>
    </g>
    <g style="isolation: isolate;">
      <g style="isolation: isolate;">
        <g style="isolation: isolate;">
          <path d="M748.43,352.7v-6.98l-.25.7-2.87,6.28h-.98l-2.85-6.28-.25-.7v6.98h-1.22v-9.38h1.34l3.22,6.89.25.6.27-.6,3.23-6.89h1.34v9.38h-1.23Z" style="fill: #1a1a1a; stroke-width: 0px;"/>
          <path d="M756.39,348.23v4.47h-1.04l-.05-.92c-.33.6-1.06,1.07-2.05,1.07-1.18,0-1.97-.72-1.97-1.9s.83-1.75,1.89-1.96l2.06-.39v-.33c0-.96-.44-1.39-1.25-1.39-.74,0-1.38.4-1.38,1.23h-1.14c.04-1.3,1.03-2.3,2.52-2.3s2.41.86,2.41,2.42h0ZM752.44,350.93c0,.54.38.84,1.03.84.56,0,1.06-.24,1.37-.67.23-.31.39-.78.39-1.25v-.25l-1.85.4c-.51.12-.94.32-.94.92h0Z" style="fill: #1a1a1a; stroke-width: 0px;"/>
          <path d="M758.74,355.58l1.13-2.97-2.53-6.66h1.23l1.78,4.85.13.51.13-.51,1.78-4.85h1.25l-3.68,9.63h-1.22Z" style="fill: #1a1a1a; stroke-width: 0px;"/>
        </g>
      </g>
    </g>
    <g id="area-fills-svg">
      <path d="M.6,330.6l24.91-4.3,24.91,1.2,24.91-6.8,24.91,2.1,24.91-5.3,24.91-8.9,24.91-24.1,24.91-20.2,24.91-22.6,24.91-20.6,24.91-14.2,24.91,15.9,24.91,39.7,24.91,30.6,24.91,17.2,24.91,6,24.91-4.8,24.91,6,24.91-.4,24.91,1,24.91-3.7,24.91,2.5,24.91,4.7v-6.8l-24.91,1.1-24.91-1.7-24.91-4.4-24.91-5.1-24.91,9.9-24.91-6.8-24.91-4.1-24.91-1.1-24.91-32.3-24.91-72.2-24.91-77.5-24.91-89.6-24.91,90-24.91,70.9-24.91,58.7-24.91,27.1-24.91,9.7-24.91,16-24.91,4.9-24.91,3.1-24.91,2-24.91,1.5-24.91,5.1v10.6h0Z" style="fill: #c6ddf4; isolation: isolate; opacity: .7; stroke-width: 0px;"/>
      <path d="M.6,331.2h572.34v-9.5l-24.91-4.7-24.91-2.5-24.91,3.7-24.91-1-24.91.4-24.91-6-24.91,4.8-24.91-6-24.91-17.2-24.91-30.6-24.91-39.7-24.91-15.9-24.91,14.2-24.91,20.6-24.91,22.6-24.91,20.2-24.91,24.1-24.91,8.9-24.91,5.3-24.91-2.1-24.91,6.8-24.91-1.2L.1,330.7v.6l.5-.1Z" style="fill: #dbb9e6; isolation: isolate; opacity: .7; stroke-width: 0px;"/>
      <path d="M.6,328.9l24.91.9,24.91.3,24.91-.7,24.91,1,24.91-.3,24.91-2.9,24.91-1.7,24.91-3.1,24.91-4.1,24.91-8.6,24.91-25.8,24.91-36.6v-19.4l-24.91,19.1-24.91,26.2-24.91,23.3-24.91,19.6-24.91,4.5-24.91,3.9-24.91-.5h-24.91l-24.91,3.5-24.91,1.3-24.91-.9-24.91,1h0Z" style="fill: #04284a; isolation: isolate; opacity: .7; stroke-width: 0px;"/>
      <path d="M.6,330.5l24.91-.5,24.91.8,24.91-.9h24.91l24.91-1.5,24.91-.3,24.91-.9,24.91-1.8,24.91-2.1,24.91-4.1,24.91-3.8,24.91-19.6,24.91-17.2,24.91-18,24.91-4.2,24.91-13.6,24.91-1,24.91-11.2,24.91,13.5,24.91,26,24.91,30.1,24.91,8.4,24.91.4,24.91,5.3,24.91,1.3,24.91,3,24.91,2.2,24.91,1,24.91-2.1,24.91,7.4,24.91,1.2,24.91-.9v2.3h-24.91l-24.91-.9-24.91-2.6-24.91-5.1-24.91-7.3-24.91-17.8-24.91-7.1-24.91-6.5-24.91-5.6-24.91-8.2-24.91-7.1-24.91-33.4-24.91-.5-24.91,12.5-24.91-2.5-24.91-18.6-24.91-4.2-24.91-14.7-24.91,26-24.91,21.1-24.91,36.6-24.91,25.8-24.91,8.6-24.91,4.1-24.91,3.1-24.91,1.7-24.91,2.9-24.91.3-24.91-1-24.91.7-24.91-.3-24.91-.9v1.7h0Z" style="fill: #efd952; isolation: isolate; opacity: .7; stroke-width: 0px;"/>
      <path d="M.6,331.2h796.39v-3.8l-24.91.9-24.91-1.2-24.91-7.4-24.91,2.1-24.91-1-24.91-2.2-24.91-3-24.91-1.3-24.91-5.3-24.91-.4-24.91-8.4-24.91-30.1-24.91-26-24.91-13.5-24.91,11.2-24.91,1-24.91,13.6-24.91,4.2-24.91,18-24.91,17.2-24.91,19.6-24.91,3.8-24.91,4.1-24.91,2.1-24.91,1.8-24.91.9-24.91.3-24.91,1.5h-24.91l-24.91.9-24.91-.8-24.91.5v.6l.6.1h.13Z" style="fill: #f56647; isolation: isolate; opacity: .7; stroke-width: 0px;"/>
    </g>
    <line x1="796.98" y1="331.2" x2="-1.45" y2="331.2" style="fill: none; stroke: #1a1a1a; stroke-linecap: square;"/>
    <g id="_2022-2023-4" data-name=" 2022-2023-4" style="isolation: isolate;">
      <g style="isolation: isolate;">
        <g style="isolation: isolate;">
          <path d="M199.75,45.48c0,1.13-.5,1.99-1.19,2.87l-2.51,3.21h3.85v1.19h-5.6v-.94l3.15-3.98c.7-.88,1.01-1.46,1.01-2.31,0-1.01-.48-1.57-1.46-1.57-.88,0-1.53.56-1.53,1.82h-1.27c0-1.85,1.09-3.01,2.82-3.01s2.73,1.08,2.73,2.72h0Z" style="fill: #647a8e; stroke-width: 0px;"/>
          <path d="M207.55,47.83c0,3.1-1.18,5.1-3.29,5.1s-3.29-2-3.29-5.1,1.16-5.07,3.29-5.07,3.29,1.99,3.29,5.07ZM202.26,47.83c0,2.4.67,3.91,2,3.91s1.99-1.51,1.99-3.91-.67-3.88-1.99-3.88-2,1.5-2,3.88Z" style="fill: #647a8e; stroke-width: 0px;"/>
          <path d="M214.32,45.48c0,1.13-.5,1.99-1.19,2.87l-2.51,3.21h3.85v1.19h-5.6v-.94l3.15-3.98c.7-.88,1.01-1.46,1.01-2.31,0-1.01-.48-1.57-1.46-1.57-.88,0-1.53.56-1.53,1.82h-1.27c0-1.85,1.09-3.01,2.82-3.01s2.73,1.08,2.73,2.72h0Z" style="fill: #647a8e; stroke-width: 0px;"/>
          <path d="M221.11,45.48c0,1.13-.5,1.99-1.19,2.87l-2.51,3.21h3.85v1.19h-5.6v-.94l3.15-3.98c.7-.88,1.01-1.46,1.01-2.31,0-1.01-.48-1.57-1.46-1.57-.88,0-1.53.56-1.53,1.82h-1.27c0-1.85,1.09-3.01,2.82-3.01s2.73,1.08,2.73,2.72h0Z" style="fill: #647a8e; stroke-width: 0px;"/>
          <path d="M221.97,49.65v-1.08h4.41v1.08h-4.41Z" style="fill: #647a8e; stroke-width: 0px;"/>
          <path d="M232.72,45.48c0,1.13-.5,1.99-1.19,2.87l-2.51,3.21h3.85v1.19h-5.6v-.94l3.15-3.98c.7-.88,1.01-1.46,1.01-2.31,0-1.01-.48-1.57-1.46-1.57-.88,0-1.53.56-1.53,1.82h-1.27c0-1.85,1.09-3.01,2.82-3.01s2.73,1.08,2.73,2.72h0Z" style="fill: #647a8e; stroke-width: 0px;"/>
          <path d="M240.52,47.83c0,3.1-1.18,5.1-3.29,5.1s-3.29-2-3.29-5.1,1.16-5.07,3.29-5.07,3.29,1.99,3.29,5.07ZM235.22,47.83c0,2.4.67,3.91,2,3.91s1.99-1.51,1.99-3.91-.67-3.88-1.99-3.88-2,1.5-2,3.88Z" style="fill: #647a8e; stroke-width: 0px;"/>
          <path d="M247.28,45.48c0,1.13-.5,1.99-1.19,2.87l-2.51,3.21h3.85v1.19h-5.6v-.94l3.15-3.98c.7-.88,1.01-1.46,1.01-2.31,0-1.01-.48-1.57-1.46-1.57-.88,0-1.53.56-1.53,1.82h-1.27c0-1.85,1.09-3.01,2.82-3.01s2.73,1.08,2.73,2.72h0Z" style="fill: #647a8e; stroke-width: 0px;"/>
          <path d="M254.3,45.52c0,1.25-.71,1.92-1.37,2.14.85.22,1.71,1.02,1.71,2.42,0,1.68-1.22,2.84-3.04,2.84s-3.1-1.09-3.1-3h1.26c0,1.27.81,1.81,1.86,1.81s1.72-.66,1.72-1.69c0-1.18-.84-1.81-2.31-1.81h-.32v-1.12h.31c1.37,0,1.99-.48,1.99-1.57,0-.97-.5-1.6-1.47-1.6-.85,0-1.56.53-1.56,1.77h-1.27c0-1.82,1.11-2.96,2.82-2.96s2.77,1.22,2.77,2.76h0Z" style="fill: #647a8e; stroke-width: 0px;"/>
        </g>
      </g>
    </g>
    <g id="_2017-2018-2" data-name=" 2017-2018-2" style="isolation: isolate;">
      <g style="isolation: isolate;">
        <g style="isolation: isolate;">
          <path d="M392.57,184.73c0,1.13-.5,1.99-1.19,2.87l-2.51,3.21h3.85v1.19h-5.6v-.94l3.15-3.98c.7-.88,1.01-1.46,1.01-2.31,0-1.01-.48-1.57-1.46-1.57-.88,0-1.53.56-1.53,1.82h-1.28c0-1.85,1.09-3.01,2.82-3.01s2.73,1.08,2.73,2.72h0Z" style="fill: #857700; stroke-width: 0px;"/>
          <path d="M400.36,187.08c0,3.1-1.18,5.1-3.29,5.1s-3.29-2-3.29-5.1,1.16-5.07,3.29-5.07,3.29,1.99,3.29,5.07ZM395.07,187.08c0,2.4.67,3.91,2,3.91s1.99-1.51,1.99-3.91-.67-3.88-1.99-3.88-2,1.5-2,3.88Z" style="fill: #857700; stroke-width: 0px;"/>
          <path d="M403.39,192v-7.51h-2.06v-1.09c1.43,0,2.12-.24,2.35-1.2h.98v9.81h-1.27Z" style="fill: #857700; stroke-width: 0px;"/>
          <path d="M408.14,192h-1.39l3.87-8.59h-4.38v-1.22h5.84v1.04l-3.94,8.77h0Z" style="fill: #857700; stroke-width: 0px;"/>
          <path d="M412.57,188.9v-1.08h4.41v1.08h-4.41Z" style="fill: #857700; stroke-width: 0px;"/>
          <path d="M423.32,184.73c0,1.13-.5,1.99-1.19,2.87l-2.51,3.21h3.85v1.19h-5.6v-.94l3.15-3.98c.7-.88,1.01-1.46,1.01-2.31,0-1.01-.48-1.57-1.46-1.57-.88,0-1.53.56-1.53,1.82h-1.28c0-1.85,1.09-3.01,2.82-3.01s2.73,1.08,2.73,2.72h0Z" style="fill: #857700; stroke-width: 0px;"/>
          <path d="M431.12,187.08c0,3.1-1.18,5.1-3.29,5.1s-3.29-2-3.29-5.1,1.16-5.07,3.29-5.07,3.29,1.99,3.29,5.07ZM425.82,187.08c0,2.4.67,3.91,2,3.91s1.99-1.51,1.99-3.91-.67-3.88-1.99-3.88-2,1.5-2,3.88Z" style="fill: #857700; stroke-width: 0px;"/>
          <path d="M434.14,192v-7.51h-2.06v-1.09c1.43,0,2.12-.24,2.35-1.2h.98v9.81h-1.27Z" style="fill: #857700; stroke-width: 0px;"/>
          <path d="M443.09,184.77c0,1.22-.7,1.93-1.21,2.19.63.28,1.51.98,1.51,2.35,0,1.67-1.36,2.87-3.12,2.87s-3.14-1.2-3.14-2.87c0-1.25.73-2.06,1.51-2.35-.52-.27-1.19-.98-1.19-2.19,0-1.53,1.09-2.76,2.82-2.76s2.82,1.23,2.82,2.76h0ZM438.42,189.28c0,1.09.87,1.72,1.85,1.72s1.84-.63,1.84-1.72-.87-1.75-1.84-1.75-1.85.66-1.85,1.75ZM438.72,184.8c0,.97.64,1.57,1.55,1.57s1.56-.6,1.56-1.57-.66-1.61-1.56-1.61-1.55.63-1.55,1.61Z" style="fill: #857700; stroke-width: 0px;"/>
        </g>
      </g>
    </g>
    <g id="_2019-2020-2" data-name=" 2019-2020-2" style="isolation: isolate;">
      <g style="isolation: isolate;">
        <g style="isolation: isolate;">
          <path d="M140.91,215.03c0,1.13-.5,1.99-1.19,2.87l-2.51,3.21h3.85v1.19h-5.6v-.94l3.15-3.98c.7-.88,1.01-1.46,1.01-2.31,0-1.01-.48-1.57-1.46-1.57-.88,0-1.53.56-1.53,1.82h-1.27c0-1.85,1.09-3.01,2.82-3.01s2.73,1.08,2.73,2.72h0Z" style="fill: #8b6c96; stroke-width: 0px;"/>
          <path d="M148.71,217.38c0,3.1-1.18,5.1-3.29,5.1s-3.29-2-3.29-5.1,1.16-5.07,3.29-5.07,3.29,1.99,3.29,5.07ZM143.41,217.38c0,2.4.67,3.91,2,3.91s1.99-1.51,1.99-3.91-.67-3.88-1.99-3.88-2,1.5-2,3.88Z" style="fill: #8b6c96; stroke-width: 0px;"/>
          <path d="M151.73,222.3v-7.51h-2.06v-1.09c1.43,0,2.11-.24,2.35-1.21h.98v9.81h-1.27Z" style="fill: #8b6c96; stroke-width: 0px;"/>
          <path d="M161,217.14c0,3.46-.99,5.34-3.35,5.34-1.57,0-2.73-1.05-2.8-2.7h1.29c.1,1.06.66,1.51,1.56,1.51,1.29,0,1.98-1.08,2.02-3.73-.35.52-1.12.98-2.05.98-1.92,0-3.03-1.34-3.03-3.07,0-1.82,1.2-3.17,3.07-3.17,1.01,0,1.77.35,2.31.98.78.9.98,2.33.98,3.85h0ZM159.6,215.48c0-.98-.71-1.99-1.86-1.99-1.08,0-1.79.83-1.79,1.96,0,1.06.71,1.91,1.79,1.91,1.02,0,1.86-.8,1.86-1.88Z" style="fill: #8b6c96; stroke-width: 0px;"/>
          <path d="M162.01,219.2v-1.08h4.41v1.08h-4.41Z" style="fill: #8b6c96; stroke-width: 0px;"/>
          <path d="M172.75,215.03c0,1.13-.5,1.99-1.19,2.87l-2.51,3.21h3.85v1.19h-5.6v-.94l3.15-3.98c.7-.88,1.01-1.46,1.01-2.31,0-1.01-.48-1.57-1.46-1.57-.88,0-1.53.56-1.53,1.82h-1.27c0-1.85,1.09-3.01,2.82-3.01s2.73,1.08,2.73,2.72h0Z" style="fill: #8b6c96; stroke-width: 0px;"/>
          <path d="M180.55,217.38c0,3.1-1.18,5.1-3.29,5.1s-3.29-2-3.29-5.1,1.16-5.07,3.29-5.07,3.29,1.99,3.29,5.07ZM175.26,217.38c0,2.4.67,3.91,2,3.91s1.99-1.51,1.99-3.91-.67-3.88-1.99-3.88-2,1.5-2,3.88Z" style="fill: #8b6c96; stroke-width: 0px;"/>
          <path d="M187.31,215.03c0,1.13-.5,1.99-1.19,2.87l-2.51,3.21h3.85v1.19h-5.6v-.94l3.15-3.98c.7-.88,1.01-1.46,1.01-2.31,0-1.01-.48-1.57-1.46-1.57-.88,0-1.53.56-1.53,1.82h-1.27c0-1.85,1.09-3.01,2.82-3.01s2.73,1.08,2.73,2.72h0Z" style="fill: #8b6c96; stroke-width: 0px;"/>
          <path d="M195.11,217.38c0,3.1-1.18,5.1-3.29,5.1s-3.29-2-3.29-5.1,1.16-5.07,3.29-5.07,3.29,1.99,3.29,5.07ZM189.82,217.38c0,2.4.67,3.91,2,3.91s1.99-1.51,1.99-3.91-.67-3.88-1.99-3.88-2,1.5-2,3.88Z" style="fill: #8b6c96; stroke-width: 0px;"/>
        </g>
      </g>
    </g>
    <g id="_2018-2019-2" data-name=" 2018-2019-2" style="isolation: isolate;">
      <g style="isolation: isolate;">
        <g style="isolation: isolate;">
          <path d="M467.78,201.93c0,1.13-.5,1.99-1.19,2.87l-2.51,3.21h3.85v1.19h-5.6v-.94l3.15-3.98c.7-.88,1.01-1.46,1.01-2.31,0-1.01-.48-1.57-1.46-1.57-.88,0-1.53.56-1.53,1.82h-1.28c0-1.85,1.09-3.01,2.82-3.01s2.73,1.08,2.73,2.72h0Z" style="fill: #d0452b; stroke-width: 0px;"/>
          <path d="M475.58,204.28c0,3.1-1.18,5.1-3.29,5.1s-3.29-2-3.29-5.1,1.16-5.07,3.29-5.07,3.29,1.99,3.29,5.07ZM470.29,204.28c0,2.4.67,3.91,2,3.91s1.99-1.51,1.99-3.91-.67-3.88-1.99-3.88-2,1.5-2,3.88Z" style="fill: #d0452b; stroke-width: 0px;"/>
          <path d="M478.61,209.2v-7.51h-2.06v-1.09c1.43,0,2.12-.24,2.35-1.21h.98v9.81h-1.27Z" style="fill: #d0452b; stroke-width: 0px;"/>
          <path d="M487.55,201.97c0,1.22-.7,1.93-1.21,2.18.63.28,1.51.98,1.51,2.35,0,1.67-1.36,2.87-3.12,2.87s-3.14-1.2-3.14-2.87c0-1.25.73-2.06,1.51-2.35-.52-.27-1.19-.98-1.19-2.18,0-1.53,1.09-2.76,2.82-2.76s2.82,1.23,2.82,2.76h0ZM482.89,206.48c0,1.09.87,1.72,1.85,1.72s1.83-.63,1.83-1.72-.87-1.75-1.83-1.75-1.85.66-1.85,1.75ZM483.18,202c0,.97.64,1.57,1.56,1.57s1.55-.6,1.55-1.57-.66-1.61-1.55-1.61-1.56.63-1.56,1.61Z" style="fill: #d0452b; stroke-width: 0px;"/>
          <path d="M488.88,206.1v-1.08h4.41v1.08h-4.41Z" style="fill: #d0452b; stroke-width: 0px;"/>
          <path d="M499.62,201.93c0,1.13-.5,1.99-1.19,2.87l-2.51,3.21h3.85v1.19h-5.6v-.94l3.15-3.98c.7-.88,1.01-1.46,1.01-2.31,0-1.01-.48-1.57-1.46-1.57-.88,0-1.53.56-1.53,1.82h-1.28c0-1.85,1.09-3.01,2.82-3.01s2.73,1.08,2.73,2.72h0Z" style="fill: #d0452b; stroke-width: 0px;"/>
          <path d="M507.42,204.28c0,3.1-1.18,5.1-3.29,5.1s-3.29-2-3.29-5.1,1.16-5.07,3.29-5.07,3.29,1.99,3.29,5.07ZM502.13,204.28c0,2.4.67,3.91,2,3.91s1.99-1.51,1.99-3.91-.67-3.88-1.99-3.88-2,1.5-2,3.88Z" style="fill: #d0452b; stroke-width: 0px;"/>
          <path d="M510.45,209.2v-7.51h-2.06v-1.09c1.43,0,2.12-.24,2.35-1.21h.98v9.81h-1.27Z" style="fill: #d0452b; stroke-width: 0px;"/>
          <path d="M519.72,204.04c0,3.46-1,5.34-3.35,5.34-1.57,0-2.73-1.05-2.8-2.7h1.29c.1,1.06.66,1.51,1.55,1.51,1.29,0,1.98-1.08,2.02-3.73-.35.52-1.12.98-2.04.98-1.92,0-3.03-1.34-3.03-3.07,0-1.82,1.21-3.17,3.07-3.17,1.01,0,1.76.35,2.31.98.79.9.98,2.33.98,3.85h0ZM518.32,202.38c0-.98-.71-1.99-1.86-1.99-1.08,0-1.79.83-1.79,1.96,0,1.06.71,1.91,1.79,1.91,1.02,0,1.86-.8,1.86-1.88Z" style="fill: #d0452b; stroke-width: 0px;"/>
        </g>
      </g>
    </g>
    <g id="svelte-zo497q-svg">
      <g id="callout-line-svg">
        <path d="M256.39,41.45c5.6-2.3,10.9-5.3,15.9-9.1" style="fill: none; stroke: #647a8e;"/>
      </g>
    </g>
    <g id="svelte-zo497q-svg-2">
      <g id="callout-line-svg-2">
        <path d="M336.08,182.3c-17.7,8.8-29.71,23.5-35.91,44" style="fill: none; stroke: #04284a;"/>
      </g>
    </g>
    <g style="isolation: isolate;">
      <g style="isolation: isolate;">
        <g style="isolation: isolate;">
          <path d="M346.25,174.93c0,1.13-.5,1.99-1.19,2.87l-2.51,3.21h3.85v1.19h-5.6v-.94l3.15-3.98c.7-.88,1.01-1.46,1.01-2.31,0-1.01-.48-1.57-1.46-1.57-.88,0-1.53.56-1.53,1.82h-1.27c0-1.85,1.09-3.01,2.82-3.01s2.73,1.08,2.73,2.72h0Z" style="fill: #04284a; stroke-width: 0px;"/>
          <path d="M354.05,177.28c0,3.1-1.18,5.1-3.29,5.1s-3.29-2-3.29-5.1,1.16-5.07,3.29-5.07,3.29,1.99,3.29,5.07ZM348.76,177.28c0,2.4.67,3.91,2,3.91s1.99-1.51,1.99-3.91-.67-3.88-1.99-3.88-2,1.5-2,3.88Z" style="fill: #04284a; stroke-width: 0px;"/>
          <path d="M360.82,174.93c0,1.13-.5,1.99-1.19,2.87l-2.51,3.21h3.85v1.19h-5.6v-.94l3.15-3.98c.7-.88,1.01-1.46,1.01-2.31,0-1.01-.48-1.57-1.46-1.57-.88,0-1.53.56-1.53,1.82h-1.27c0-1.85,1.09-3.01,2.82-3.01s2.73,1.08,2.73,2.72h0Z" style="fill: #04284a; stroke-width: 0px;"/>
          <path d="M367.83,174.97c0,1.25-.71,1.92-1.37,2.14.85.22,1.71,1.02,1.71,2.42,0,1.68-1.22,2.84-3.04,2.84s-3.1-1.09-3.1-3h1.26c.01,1.27.81,1.81,1.86,1.81s1.72-.66,1.72-1.69c0-1.18-.84-1.81-2.31-1.81h-.32v-1.12h.31c1.37,0,1.99-.48,1.99-1.57,0-.97-.5-1.6-1.47-1.6-.85,0-1.55.53-1.55,1.77h-1.27c0-1.82,1.11-2.96,2.82-2.96s2.77,1.22,2.77,2.76h0Z" style="fill: #04284a; stroke-width: 0px;"/>
        </g>
      </g>
    </g>
    <g id="svelte-zo497q-svg-3">
      <g id="callout-line-svg-3">
        <path d="M381.09,192c-9.8-.2-19.6,2.2-29.51,7.3" style="fill: none; stroke: #857700;"/>
      </g>
    </g>
    <g id="svelte-zo497q-svg-4">
      <g id="callout-line-svg-4">
        <path d="M199.95,211.4c20.5-9.2,40.31-11.9,69.32-5.4" style="fill: none; stroke: #8b6c96;"/>
      </g>
    </g>
    <g id="svelte-zo497q-svg-5">
      <g id="callout-line-svg-5">
        <path d="M461.61,213.2c-4.6,4.1-8.6,9.3-11.8,15.5" style="fill: none; stroke: #f56647;"/>
      </g>
    </g>
    <g id="y-tick-labels-svg_number-axis-svg_grid-y-svg_datawrapper-RtHpC-uu7shf-svg-2" data-name="y-tick-labels-svg number-axis-svg grid-y-svg datawrapper-RtHpC-uu7shf-svg-2">
      <g style="isolation: isolate;">
        <g style="isolation: isolate;">
          <g style="isolation: isolate;">
            <path d="M42.93,247.89v2.84c.32-.2.87-.36,1.6-.36,1.72,0,2.91,1.13,2.91,3.05s-1.15,3.26-3.08,3.26c-1.79,0-3-.97-3-2.86h1.27c0,1.16.73,1.67,1.74,1.67,1.15,0,1.78-.84,1.78-2.03s-.66-1.9-1.81-1.9c-.71,0-1.23.22-1.57.45h-1.13v-5.31h5.28v1.19s-3.99,0-3.99,0Z" style="fill: #1a1a1a; stroke-width: 0px;"/>
          </g>
        </g>
      </g>
      <g style="isolation: isolate;">
        <g style="isolation: isolate;">
          <g style="isolation: isolate;">
            <path d="M42.95,173.6v-7.51h-2.06v-1.09c1.43,0,2.11-.24,2.35-1.2h.98v9.81h-1.27,0Z" style="fill: #1a1a1a; stroke-width: 0px;"/>
            <path d="M52.46,168.68c0,3.1-1.18,5.1-3.29,5.1s-3.29-2-3.29-5.1,1.16-5.07,3.29-5.07,3.29,1.99,3.29,5.07ZM47.16,168.68c0,2.4.67,3.91,2,3.91s1.99-1.51,1.99-3.91-.67-3.88-1.99-3.88-2,1.5-2,3.88Z" style="fill: #1a1a1a; stroke-width: 0px;"/>
          </g>
        </g>
      </g>
      <g style="isolation: isolate;">
        <g style="isolation: isolate;">
          <g style="isolation: isolate;">
            <path d="M42.95,90.7v-7.51h-2.06v-1.09c1.43,0,2.11-.24,2.35-1.2h.98v9.81h-1.27,0Z" style="fill: #1a1a1a; stroke-width: 0px;"/>
            <path d="M47.69,82.09v2.84c.32-.2.87-.36,1.6-.36,1.72,0,2.91,1.13,2.91,3.05s-1.15,3.26-3.08,3.26c-1.79,0-3-.97-3-2.86h1.27c0,1.16.73,1.67,1.74,1.67,1.15,0,1.78-.84,1.78-2.03s-.66-1.91-1.81-1.91c-.71,0-1.23.22-1.57.45h-1.13v-5.31h5.28v1.19h-3.99,0Z" style="fill: #1a1a1a; stroke-width: 0px;"/>
          </g>
        </g>
      </g>
    </g>
    <g>
      <path d="M310.71,37.54v8.61h4.37v1.19h-5.65v-9.81h1.27Z" style="fill: #000; stroke-width: 0px;"/>
      <path d="M322.04,41.16c.67.69,1.01,1.57,1.01,2.65s-.34,1.96-1.01,2.65c-.66.69-1.51,1.04-2.56,1.04s-1.92-.35-2.59-1.04c-.66-.69-.99-1.57-.99-2.65s.34-1.96.99-2.65c.67-.69,1.54-1.04,2.59-1.04s1.91.35,2.56,1.04ZM317.78,41.98c-.43.48-.64,1.09-.64,1.83s.21,1.34.64,1.83c.43.49,1.01.73,1.71.73s1.25-.24,1.67-.73c.43-.49.64-1.09.64-1.83s-.21-1.36-.64-1.83c-.42-.49-.98-.73-1.67-.73s-1.27.24-1.71.73Z" style="fill: #000; stroke-width: 0px;"/>
      <path d="M333.94,40.28l-2.24,7.06h-1.22l-1.71-5.04-1.72,5.04h-1.18l-2.24-7.06h1.29l1.47,4.93.14.64.15-.64,1.58-4.93h1.04l1.58,4.93.15.64.14-.64,1.47-4.93h1.29Z" style="fill: #000; stroke-width: 0px;"/>
      <path d="M343.86,40.28l-2.7,7.06h-1.21l-2.69-7.06h1.29l1.86,5.07.14.53.14-.53,1.86-5.07h1.3Z" style="fill: #000; stroke-width: 0px;"/>
      <path d="M350.06,42.66v4.68h-1.09l-.06-.97c-.38.67-1.15,1.12-2.14,1.12-1.25,0-2.06-.77-2.06-1.99,0-1.11.66-1.79,1.97-2.04l2.16-.41v-.35c0-.97-.43-1.46-1.3-1.46s-1.44.46-1.44,1.29h-1.19c.01-.69.27-1.26.76-1.72.49-.46,1.11-.69,1.88-.69,1.58,0,2.52.91,2.52,2.54ZM348.84,44.1l-1.93.42c-.62.15-.98.39-.98.97s.39.88,1.08.88c.62,0,1.09-.24,1.43-.7.27-.36.41-.8.41-1.3v-.27Z" style="fill: #000; stroke-width: 0px;"/>
      <path d="M358.04,42.48h-1.2c-.28-.78-1.01-1.23-1.92-1.23-.63,0-1.16.24-1.58.73-.41.49-.62,1.11-.62,1.85s.21,1.33.63,1.82.95.73,1.6.73c.9,0,1.65-.49,1.89-1.23h1.22c-.38,1.51-1.58,2.35-3.15,2.35-.99,0-1.82-.35-2.46-1.04-.64-.69-.97-1.57-.97-2.63s.32-1.95.97-2.65c.66-.7,1.47-1.05,2.46-1.05,1.58,0,2.8.84,3.14,2.35Z" style="fill: #000; stroke-width: 0px;"/>
      <path d="M365.66,42.48h-1.2c-.28-.78-1.01-1.23-1.92-1.23-.63,0-1.16.24-1.58.73-.41.49-.62,1.11-.62,1.85s.21,1.33.63,1.82.95.73,1.6.73c.9,0,1.65-.49,1.89-1.23h1.22c-.38,1.51-1.58,2.35-3.15,2.35-.99,0-1.82-.35-2.46-1.04-.64-.69-.97-1.57-.97-2.63s.32-1.95.97-2.65c.66-.7,1.47-1.05,2.46-1.05,1.58,0,2.8.84,3.14,2.35Z" style="fill: #000; stroke-width: 0px;"/>
      <path d="M367.92,38.92c-.46,0-.83-.36-.83-.81s.36-.83.83-.83.84.36.84.83-.38.81-.84.81ZM368.53,40.28v7.06h-1.21v-7.06h1.21Z" style="fill: #000; stroke-width: 0px;"/>
      <path d="M376.13,42.77v4.57h-1.22v-4.37c0-1.08-.52-1.67-1.37-1.67-.95,0-1.64.85-1.64,2.25v3.78h-1.21v-7.06h1.08l.07.97c.39-.74,1.05-1.12,1.99-1.12,1.47,0,2.3,1.04,2.3,2.65Z" style="fill: #000; stroke-width: 0px;"/>
      <path d="M384.18,43.71v.57h-5.36c.1,1.29.97,2.09,2.18,2.09.98,0,1.61-.38,1.91-1.15h1.21c-.43,1.42-1.53,2.27-3.14,2.27-1,0-1.82-.34-2.45-1.01-.63-.67-.95-1.55-.95-2.66s.31-1.96.94-2.65c.63-.7,1.44-1.05,2.47-1.05,1.92,0,3.21,1.27,3.21,3.59ZM378.83,43.21h4.13c-.01-1.19-.81-1.96-1.99-1.96s-1.99.8-2.14,1.96Z" style="fill: #000; stroke-width: 0px;"/>
      <path d="M394.76,42.48h-1.2c-.28-.78-1.01-1.23-1.92-1.23-.63,0-1.16.24-1.58.73-.41.49-.62,1.11-.62,1.85s.21,1.33.63,1.82.95.73,1.6.73c.9,0,1.65-.49,1.89-1.23h1.22c-.38,1.51-1.58,2.35-3.15,2.35-.99,0-1.82-.35-2.46-1.04-.64-.69-.97-1.57-.97-2.63s.32-1.95.97-2.65c.66-.7,1.47-1.05,2.46-1.05,1.58,0,2.8.84,3.14,2.35Z" style="fill: #000; stroke-width: 0px;"/>
      <path d="M401.96,41.16c.67.69,1.01,1.57,1.01,2.65s-.34,1.96-1.01,2.65c-.66.69-1.51,1.04-2.56,1.04s-1.92-.35-2.59-1.04c-.66-.69-.99-1.57-.99-2.65s.34-1.96.99-2.65c.67-.69,1.54-1.04,2.59-1.04s1.91.35,2.56,1.04ZM397.7,41.98c-.43.48-.64,1.09-.64,1.83s.21,1.34.64,1.83c.43.49,1.01.73,1.71.73s1.25-.24,1.67-.73c.43-.49.64-1.09.64-1.83s-.21-1.36-.64-1.83c-.42-.49-.98-.73-1.67-.73s-1.27.24-1.71.73Z" style="fill: #000; stroke-width: 0px;"/>
      <path d="M410.15,40.28l-2.7,7.06h-1.21l-2.69-7.06h1.29l1.86,5.07.14.53.14-.53,1.86-5.07h1.3Z" style="fill: #000; stroke-width: 0px;"/>
      <path d="M417.32,43.71v.57h-5.36c.1,1.29.97,2.09,2.18,2.09.98,0,1.61-.38,1.91-1.15h1.21c-.43,1.42-1.53,2.27-3.14,2.27-1,0-1.82-.34-2.45-1.01-.63-.67-.95-1.55-.95-2.66s.31-1.96.94-2.65c.63-.7,1.44-1.05,2.47-1.05,1.92,0,3.21,1.27,3.21,3.59ZM411.97,43.21h4.13c-.01-1.19-.81-1.96-1.99-1.96s-1.99.8-2.14,1.96Z" style="fill: #000; stroke-width: 0px;"/>
      <path d="M422.38,41.42c-.57,0-1.05.17-1.43.52-.42.38-.63.94-.64,1.67v3.74h-1.21v-7.06h1.08l.08,1.23c.27-.73.99-1.3,2.12-1.3v1.2Z" style="fill: #000; stroke-width: 0px;"/>
      <path d="M428.53,42.66v4.68h-1.09l-.06-.97c-.38.67-1.15,1.12-2.14,1.12-1.25,0-2.06-.77-2.06-1.99,0-1.11.66-1.79,1.97-2.04l2.16-.41v-.35c0-.97-.43-1.46-1.3-1.46s-1.44.46-1.44,1.29h-1.19c.01-.69.27-1.26.76-1.72.49-.46,1.11-.69,1.88-.69,1.58,0,2.52.91,2.52,2.54ZM427.31,44.1l-1.93.42c-.62.15-.98.39-.98.97s.39.88,1.08.88c.62,0,1.09-.24,1.43-.7.27-.36.41-.8.41-1.3v-.27Z" style="fill: #000; stroke-width: 0px;"/>
      <path d="M436.54,40.28v1.06h-1.23c.24.39.35.83.35,1.32,0,.71-.25,1.32-.74,1.79-.49.48-1.15.71-1.95.71-.57,0-1.08-.13-1.53-.38-.18.18-.28.42-.28.7,0,.45.35.71.9.71h1.88c1.47,0,2.23.7,2.23,1.92,0,1.5-1.13,2.38-2.94,2.38-1.97,0-3.08-.8-3.08-2.2,0-.57.25-.99.77-1.27-.52-.27-.94-.8-.94-1.47,0-.6.24-1.09.73-1.44-.29-.41-.45-.9-.45-1.46,0-.74.25-1.34.74-1.82.5-.48,1.16-.71,1.97-.71.35,0,.69.06,1.01.15h2.56ZM432.35,47.27c-.6.04-1.02.36-1.02.99,0,.77.7,1.18,1.89,1.18,1.11,0,1.75-.43,1.75-1.26,0-.6-.42-.91-1.27-.91h-1.34ZM432.95,44.1c.91,0,1.51-.6,1.51-1.44s-.6-1.47-1.51-1.47-1.51.62-1.51,1.47.6,1.44,1.51,1.44Z" style="fill: #000; stroke-width: 0px;"/>
      <path d="M443.61,43.71v.57h-5.36c.1,1.29.97,2.09,2.18,2.09.98,0,1.61-.38,1.91-1.15h1.21c-.43,1.42-1.53,2.27-3.14,2.27-1,0-1.82-.34-2.45-1.01-.63-.67-.95-1.55-.95-2.66s.31-1.96.94-2.65c.63-.7,1.44-1.05,2.47-1.05,1.92,0,3.21,1.27,3.21,3.59ZM438.26,43.21h4.13c-.01-1.19-.81-1.96-1.99-1.96s-1.99.8-2.14,1.96Z" style="fill: #000; stroke-width: 0px;"/>
      <path d="M453.13,42.66v4.68h-1.09l-.06-.97c-.38.67-1.15,1.12-2.14,1.12-1.25,0-2.06-.77-2.06-1.99,0-1.11.66-1.79,1.97-2.04l2.16-.41v-.35c0-.97-.43-1.46-1.3-1.46s-1.44.46-1.44,1.29h-1.19c.01-.69.27-1.26.76-1.72.49-.46,1.11-.69,1.88-.69,1.58,0,2.52.91,2.52,2.54ZM451.91,44.1l-1.93.42c-.62.15-.98.39-.98.97s.39.88,1.08.88c.62,0,1.09-.24,1.43-.7.27-.36.41-.8.41-1.3v-.27Z" style="fill: #000; stroke-width: 0px;"/>
      <path d="M460.55,42.77v4.57h-1.22v-4.37c0-1.08-.52-1.67-1.37-1.67-.95,0-1.64.85-1.64,2.25v3.78h-1.21v-7.06h1.08l.07.97c.39-.74,1.05-1.12,1.99-1.12,1.47,0,2.3,1.04,2.3,2.65Z" style="fill: #000; stroke-width: 0px;"/>
      <path d="M468.85,37.11v10.23h-1.08l-.07-1.04c-.55.8-1.36,1.19-2.42,1.19-.98,0-1.78-.35-2.38-1.04-.6-.7-.91-1.58-.91-2.65s.31-1.93.91-2.63c.62-.7,1.42-1.05,2.4-1.05,1.08,0,1.86.38,2.35,1.12v-4.13h1.2ZM463.86,41.99c-.42.46-.63,1.08-.63,1.82,0,1.51.88,2.55,2.23,2.55.6,0,1.11-.22,1.54-.69.43-.46.66-1.05.66-1.79v-.07c0-.76-.22-1.37-.66-1.83-.43-.46-.94-.7-1.53-.7-.66,0-1.19.24-1.61.71Z" style="fill: #000; stroke-width: 0px;"/>
      <path d="M479.13,40.28v7.06h-1.08l-.07-.97c-.35.74-1.01,1.12-1.95,1.12-1.47,0-2.27-1.02-2.27-2.65v-4.57h1.2v4.37c0,1.11.49,1.68,1.34,1.68.94,0,1.61-.8,1.61-2.13v-3.92h1.2Z" style="fill: #000; stroke-width: 0px;"/>
      <path d="M486.69,42.77v4.57h-1.22v-4.37c0-1.08-.52-1.67-1.37-1.67-.95,0-1.64.85-1.64,2.25v3.78h-1.21v-7.06h1.08l.07.97c.39-.74,1.05-1.12,1.99-1.12,1.47,0,2.3,1.04,2.3,2.65Z" style="fill: #000; stroke-width: 0px;"/>
      <path d="M493.97,40.28v7.06h-1.08l-.07-.97c-.35.74-1.01,1.12-1.95,1.12-1.47,0-2.27-1.02-2.27-2.65v-4.57h1.2v4.37c0,1.11.49,1.68,1.34,1.68.94,0,1.61-.8,1.61-2.13v-3.92h1.2Z" style="fill: #000; stroke-width: 0px;"/>
      <path d="M499.75,40.74c.43.41.66.95.67,1.61h-1.23c-.01-.74-.38-1.11-1.12-1.11s-1.08.39-1.08.95.28.78,1.33,1.02c1.68.39,2.31.98,2.31,2.12,0,1.34-1.02,2.16-2.48,2.16-1.61,0-2.54-.9-2.58-2.3h1.23c.01.78.48,1.18,1.37,1.18.79,0,1.22-.39,1.22-.95,0-.6-.34-.87-1.47-1.13-1.51-.35-2.17-.9-2.17-2.02,0-.6.21-1.11.62-1.51.42-.42.99-.63,1.72-.63.69,0,1.23.21,1.65.62Z" style="fill: #000; stroke-width: 0px;"/>
      <path d="M507.53,40.28v7.06h-1.08l-.07-.97c-.35.74-1.01,1.12-1.95,1.12-1.47,0-2.27-1.02-2.27-2.65v-4.57h1.2v4.37c0,1.11.49,1.68,1.34,1.68.94,0,1.61-.8,1.61-2.13v-3.92h1.2Z" style="fill: #000; stroke-width: 0px;"/>
      <path d="M514.59,42.66v4.68h-1.09l-.06-.97c-.38.67-1.15,1.12-2.14,1.12-1.25,0-2.06-.77-2.06-1.99,0-1.11.66-1.79,1.97-2.04l2.16-.41v-.35c0-.97-.43-1.46-1.3-1.46s-1.44.46-1.44,1.29h-1.19c.01-.69.27-1.26.76-1.72.49-.46,1.11-.69,1.88-.69,1.58,0,2.52.91,2.52,2.54ZM513.37,44.1l-1.93.42c-.62.15-.98.39-.98.97s.39.88,1.08.88c.62,0,1.09-.24,1.43-.7.27-.36.41-.8.41-1.3v-.27Z" style="fill: #000; stroke-width: 0px;"/>
      <path d="M517.82,37.11v10.23h-1.21v-10.23h1.21Z" style="fill: #000; stroke-width: 0px;"/>
      <path d="M521.24,37.11v10.23h-1.21v-10.23h1.21Z" style="fill: #000; stroke-width: 0px;"/>
      <path d="M529.16,40.28l-3.85,10.07h-1.27l1.18-3.11-2.65-6.96h1.29l1.86,5.07.14.53.14-.53,1.86-5.07h1.3Z" style="fill: #000; stroke-width: 0px;"/>
      <path d="M539.38,43.71v.57h-5.36c.1,1.29.97,2.09,2.18,2.09.98,0,1.61-.38,1.91-1.15h1.21c-.43,1.42-1.53,2.27-3.14,2.27-1,0-1.82-.34-2.45-1.01-.63-.67-.95-1.55-.95-2.66s.31-1.96.94-2.65c.63-.7,1.44-1.05,2.47-1.05,1.92,0,3.21,1.27,3.21,3.59ZM534.03,43.21h4.13c-.01-1.19-.81-1.96-1.99-1.96s-1.99.8-2.14,1.96Z" style="fill: #000; stroke-width: 0px;"/>
      <path d="M546.02,42.66v4.68h-1.09l-.06-.97c-.38.67-1.15,1.12-2.14,1.12-1.25,0-2.06-.77-2.06-1.99,0-1.11.66-1.79,1.97-2.04l2.16-.41v-.35c0-.97-.43-1.46-1.3-1.46s-1.44.46-1.44,1.29h-1.19c.01-.69.27-1.26.76-1.72.49-.46,1.11-.69,1.88-.69,1.58,0,2.52.91,2.52,2.54ZM544.8,44.1l-1.93.42c-.62.15-.98.39-.98.97s.39.88,1.08.88c.62,0,1.09-.24,1.43-.7.27-.36.41-.8.41-1.3v-.27Z" style="fill: #000; stroke-width: 0px;"/>
      <path d="M551.37,41.42c-.57,0-1.05.17-1.43.52-.42.38-.63.94-.64,1.67v3.74h-1.21v-7.06h1.08l.08,1.23c.27-.73.99-1.3,2.12-1.3v1.2Z" style="fill: #000; stroke-width: 0px;"/>
      <path d="M554.01,37.11v10.23h-1.21v-10.23h1.21Z" style="fill: #000; stroke-width: 0px;"/>
      <path d="M561.94,40.28l-3.85,10.07h-1.27l1.18-3.11-2.65-6.96h1.29l1.86,5.07.14.53.14-.53,1.86-5.07h1.3Z" style="fill: #000; stroke-width: 0px;"/>
      <path d="M310.06,55.72c-.46,0-.83-.36-.83-.81s.36-.83.83-.83.84.36.84.83-.38.81-.84.81ZM310.66,57.08v7.06h-1.2v-7.06h1.2Z" style="fill: #000; stroke-width: 0px;"/>
      <path d="M318.27,59.57v4.57h-1.22v-4.37c0-1.08-.52-1.67-1.37-1.67-.95,0-1.64.85-1.64,2.25v3.78h-1.2v-7.06h1.08l.07.97c.39-.74,1.05-1.12,1.99-1.12,1.47,0,2.3,1.04,2.3,2.65Z" style="fill: #000; stroke-width: 0px;"/>
      <path d="M323.76,53.96v1.09c-.27-.11-.56-.17-.85-.17-.66,0-.99.38-.99,1.15v1.05h1.75v1.11h-1.75v5.95h-1.22v-5.95h-1.27v-1.11h1.27v-1.08c0-1.4.77-2.21,2.12-2.21.38,0,.69.06.95.17Z" style="fill: #000; stroke-width: 0px;"/>
      <path d="M326.18,53.91v10.23h-1.21v-10.23h1.21Z" style="fill: #000; stroke-width: 0px;"/>
      <path d="M333.61,57.08v7.06h-1.08l-.07-.97c-.35.74-1.01,1.12-1.95,1.12-1.47,0-2.27-1.02-2.27-2.65v-4.57h1.2v4.37c0,1.11.49,1.68,1.34,1.68.94,0,1.61-.8,1.61-2.13v-3.92h1.2Z" style="fill: #000; stroke-width: 0px;"/>
      <path d="M341.77,60.51v.57h-5.36c.1,1.29.97,2.09,2.18,2.09.98,0,1.61-.38,1.91-1.15h1.21c-.43,1.42-1.53,2.27-3.14,2.27-1,0-1.82-.34-2.45-1.01-.63-.67-.95-1.55-.95-2.66s.31-1.96.94-2.65c.63-.7,1.44-1.05,2.47-1.05,1.92,0,3.21,1.27,3.21,3.59ZM336.42,60.01h4.13c-.01-1.19-.81-1.96-1.99-1.96s-1.99.8-2.14,1.96Z" style="fill: #000; stroke-width: 0px;"/>
      <path d="M348.92,59.57v4.57h-1.22v-4.37c0-1.08-.52-1.67-1.37-1.67-.95,0-1.64.85-1.64,2.25v3.78h-1.21v-7.06h1.08l.07.97c.39-.74,1.05-1.12,1.99-1.12,1.47,0,2.3,1.04,2.3,2.65Z" style="fill: #000; stroke-width: 0px;"/>
      <path d="M355.72,57.08v.92l-3.75,5.06h3.98v1.08h-5.59v-.92l3.75-5.06h-3.73v-1.08h5.34Z" style="fill: #000; stroke-width: 0px;"/>
      <path d="M362.28,59.46v4.68h-1.09l-.06-.97c-.38.67-1.15,1.12-2.14,1.12-1.25,0-2.06-.77-2.06-1.99,0-1.11.66-1.79,1.97-2.04l2.16-.41v-.35c0-.97-.43-1.46-1.3-1.46s-1.44.46-1.44,1.29h-1.19c.01-.69.27-1.26.76-1.72.49-.46,1.11-.69,1.88-.69,1.58,0,2.52.91,2.52,2.54ZM361.07,60.9l-1.93.42c-.62.15-.98.39-.98.97s.39.88,1.08.88c.62,0,1.09-.24,1.43-.7.27-.36.41-.8.41-1.3v-.27Z" style="fill: #000; stroke-width: 0px;"/>
      <path d="M372.08,59.46v4.68h-1.09l-.06-.97c-.38.67-1.15,1.12-2.14,1.12-1.25,0-2.06-.77-2.06-1.99,0-1.11.66-1.79,1.97-2.04l2.16-.41v-.35c0-.97-.43-1.46-1.3-1.46s-1.44.46-1.44,1.29h-1.19c.01-.69.27-1.26.76-1.72.49-.46,1.11-.69,1.88-.69,1.58,0,2.52.91,2.52,2.54ZM370.87,60.9l-1.93.42c-.62.15-.98.39-.98.97s.39.88,1.08.88c.62,0,1.09-.24,1.43-.7.27-.36.41-.8.41-1.3v-.27Z" style="fill: #000; stroke-width: 0px;"/>
      <path d="M380.06,59.28h-1.2c-.28-.78-1.01-1.23-1.92-1.23-.63,0-1.16.24-1.58.73-.41.49-.62,1.11-.62,1.85s.21,1.33.63,1.82.95.73,1.6.73c.9,0,1.65-.49,1.89-1.23h1.22c-.38,1.51-1.58,2.35-3.15,2.35-.99,0-1.82-.35-2.46-1.04-.64-.69-.97-1.57-.97-2.63s.32-1.95.97-2.65c.66-.7,1.47-1.05,2.46-1.05,1.58,0,2.8.84,3.14,2.35Z" style="fill: #000; stroke-width: 0px;"/>
      <path d="M383.3,55.32v1.77s1.79,0,1.79,0v1.12h-1.82l-.03,3.78c0,.83.22,1.15,1.01,1.15.31,0,.59-.04.84-.13v1.08c-.25.1-.6.15-1.05.15-1.36,0-2.02-.62-2-2.03l.03-4.01h-1.32v-1.12h1.32v-1.77h1.23Z" style="fill: #000; stroke-width: 0px;"/>
      <path d="M387.23,55.72c-.46,0-.83-.36-.83-.81s.36-.83.83-.83.84.36.84.83-.38.81-.84.81ZM387.83,57.08v7.06h-1.21v-7.06h1.21Z" style="fill: #000; stroke-width: 0px;"/>
      <path d="M395.76,57.08l-2.7,7.06h-1.21l-2.69-7.06h1.29l1.86,5.07.14.53.14-.53,1.86-5.07h1.3Z" style="fill: #000; stroke-width: 0px;"/>
      <path d="M397.67,55.72c-.46,0-.83-.36-.83-.81s.36-.83.83-.83.84.36.84.83-.38.81-.84.81ZM398.28,57.08v7.06h-1.21v-7.06h1.21Z" style="fill: #000; stroke-width: 0px;"/>
      <path d="M402.06,55.32v1.77s1.79,0,1.79,0v1.12h-1.82l-.03,3.78c0,.83.22,1.15,1.01,1.15.31,0,.59-.04.84-.13v1.08c-.25.1-.6.15-1.05.15-1.36,0-2.02-.62-2-2.03l.03-4.01h-1.32v-1.12h1.32v-1.77h1.23Z" style="fill: #000; stroke-width: 0px;"/>
      <path d="M411.1,57.08l-3.85,10.07h-1.27l1.18-3.11-2.65-6.96h1.29l1.86,5.07.14.53.14-.53,1.86-5.07h1.3Z" style="fill: #000; stroke-width: 0px;"/>
      <path d="M421.28,59.28h-1.2c-.28-.78-1.01-1.23-1.92-1.23-.63,0-1.16.24-1.58.73-.41.49-.62,1.11-.62,1.85s.21,1.33.63,1.82.95.73,1.6.73c.9,0,1.65-.49,1.89-1.23h1.22c-.38,1.51-1.58,2.35-3.15,2.35-.99,0-1.82-.35-2.46-1.04-.64-.69-.97-1.57-.97-2.63s.32-1.95.97-2.65c.66-.7,1.47-1.05,2.46-1.05,1.58,0,2.8.84,3.14,2.35Z" style="fill: #000; stroke-width: 0px;"/>
      <path d="M428.47,57.96c.67.69,1.01,1.57,1.01,2.65s-.34,1.96-1.01,2.65c-.66.69-1.51,1.04-2.56,1.04s-1.92-.35-2.59-1.04c-.66-.69-.99-1.57-.99-2.65s.34-1.96.99-2.65c.67-.69,1.54-1.04,2.59-1.04s1.91.35,2.56,1.04ZM424.22,58.78c-.43.48-.64,1.09-.64,1.83s.21,1.34.64,1.83c.43.49,1.01.73,1.71.73s1.25-.24,1.67-.73c.43-.49.64-1.09.64-1.83s-.21-1.36-.64-1.83c-.42-.49-.98-.73-1.67-.73s-1.27.24-1.71.73Z" style="fill: #000; stroke-width: 0px;"/>
      <path d="M436.48,59.57v4.57h-1.22v-4.37c0-1.08-.52-1.67-1.37-1.67-.95,0-1.64.85-1.64,2.25v3.78h-1.21v-7.06h1.08l.07.97c.39-.74,1.05-1.12,1.99-1.12,1.47,0,2.3,1.04,2.3,2.65Z" style="fill: #000; stroke-width: 0px;"/>
      <path d="M440.11,55.32v1.77s1.79,0,1.79,0v1.12h-1.82l-.03,3.78c0,.83.22,1.15,1.01,1.15.31,0,.59-.04.84-.13v1.08c-.25.1-.6.15-1.05.15-1.36,0-2.02-.62-2-2.03l.03-4.01h-1.32v-1.12h1.32v-1.77h1.23Z" style="fill: #000; stroke-width: 0px;"/>
      <path d="M446.76,58.21c-.57,0-1.05.17-1.43.52-.42.38-.63.94-.64,1.67v3.74h-1.21v-7.06h1.08l.08,1.23c.27-.73.99-1.3,2.12-1.3v1.2Z" style="fill: #000; stroke-width: 0px;"/>
      <path d="M448.8,55.72c-.46,0-.83-.36-.83-.81s.36-.83.83-.83.84.36.84.83-.38.81-.84.81ZM449.4,57.08v7.06h-1.21v-7.06h1.21Z" style="fill: #000; stroke-width: 0px;"/>
      <path d="M452.78,53.91v4.13c.49-.74,1.27-1.12,2.35-1.12.98,0,1.78.35,2.38,1.05.62.7.92,1.58.92,2.63s-.31,1.95-.91,2.65c-.6.69-1.4,1.04-2.38,1.04-1.06,0-1.88-.39-2.42-1.19l-.07,1.04h-1.08v-10.23h1.21ZM453.41,58.78c-.43.46-.64,1.08-.64,1.83v.07c0,.74.21,1.33.64,1.79.43.46.95.69,1.55.69,1.34,0,2.23-1.04,2.23-2.55,0-.74-.21-1.36-.63-1.82-.42-.48-.95-.71-1.61-.71-.59,0-1.11.24-1.54.7Z" style="fill: #000; stroke-width: 0px;"/>
      <path d="M465.25,57.08v7.06h-1.08l-.07-.97c-.35.74-1.01,1.12-1.95,1.12-1.47,0-2.27-1.02-2.27-2.65v-4.57h1.2v4.37c0,1.11.49,1.68,1.34,1.68.94,0,1.61-.8,1.61-2.13v-3.92h1.2Z" style="fill: #000; stroke-width: 0px;"/>
      <path d="M468.99,55.32v1.77s1.79,0,1.79,0v1.12h-1.82l-.03,3.78c0,.83.22,1.15,1.01,1.15.31,0,.59-.04.84-.13v1.08c-.25.1-.6.15-1.05.15-1.36,0-2.02-.62-2-2.03l.03-4.01h-1.32v-1.12h1.32v-1.77h1.23Z" style="fill: #000; stroke-width: 0px;"/>
      <path d="M478.31,60.51v.57h-5.36c.1,1.29.97,2.09,2.18,2.09.98,0,1.61-.38,1.91-1.15h1.21c-.43,1.42-1.53,2.27-3.14,2.27-1,0-1.82-.34-2.45-1.01-.63-.67-.95-1.55-.95-2.66s.31-1.96.94-2.65c.63-.7,1.44-1.05,2.47-1.05,1.92,0,3.21,1.27,3.21,3.59ZM472.96,60.01h4.13c-.01-1.19-.81-1.96-1.99-1.96s-1.99.8-2.14,1.96Z" style="fill: #000; stroke-width: 0px;"/>
      <path d="M486.42,53.91v10.23h-1.08l-.07-1.04c-.55.8-1.36,1.19-2.42,1.19-.98,0-1.78-.35-2.38-1.04-.6-.7-.91-1.58-.91-2.65s.31-1.93.91-2.63c.62-.7,1.42-1.05,2.4-1.05,1.08,0,1.86.38,2.35,1.12v-4.13h1.2ZM481.43,58.79c-.42.46-.63,1.08-.63,1.82,0,1.51.88,2.55,2.23,2.55.6,0,1.11-.22,1.54-.69.43-.46.66-1.05.66-1.79v-.07c0-.76-.22-1.37-.66-1.83-.43-.46-.94-.7-1.53-.7-.66,0-1.19.24-1.61.71Z" style="fill: #000; stroke-width: 0px;"/>
      <path d="M493.04,55.32v1.77s1.79,0,1.79,0v1.12h-1.82l-.03,3.78c0,.83.22,1.15,1.01,1.15.31,0,.59-.04.84-.13v1.08c-.25.1-.6.15-1.05.15-1.36,0-2.02-.62-2-2.03l.03-4.01h-1.32v-1.12h1.32v-1.77h1.23Z" style="fill: #000; stroke-width: 0px;"/>
      <path d="M501.9,57.96c.67.69,1.01,1.57,1.01,2.65s-.34,1.96-1.01,2.65c-.66.69-1.51,1.04-2.56,1.04s-1.92-.35-2.59-1.04c-.66-.69-.99-1.57-.99-2.65s.34-1.96.99-2.65c.67-.69,1.54-1.04,2.59-1.04s1.91.35,2.56,1.04ZM497.65,58.78c-.43.48-.64,1.09-.64,1.83s.21,1.34.64,1.83c.43.49,1.01.73,1.71.73s1.25-.24,1.67-.73c.43-.49.64-1.09.64-1.83s-.21-1.36-.64-1.83c-.42-.49-.98-.73-1.67-.73s-1.27.24-1.71.73Z" style="fill: #000; stroke-width: 0px;"/>
      <path d="M508.57,53.91v4.05c.29-.6.98-1.04,1.93-1.04,1.47,0,2.3,1.04,2.3,2.65v4.57h-1.22v-4.37c0-1.08-.52-1.67-1.37-1.67-.95,0-1.64.85-1.64,2.25v3.78h-1.21v-10.23h1.21Z" style="fill: #000; stroke-width: 0px;"/>
      <path d="M515.45,55.72c-.46,0-.83-.36-.83-.81s.36-.83.83-.83.84.36.84.83-.38.81-.84.81ZM516.06,57.08v7.06h-1.21v-7.06h1.21Z" style="fill: #000; stroke-width: 0px;"/>
      <path d="M524.25,57.08v1.06h-1.23c.24.39.35.83.35,1.32,0,.71-.25,1.32-.74,1.79-.49.48-1.15.71-1.95.71-.57,0-1.08-.13-1.53-.38-.18.18-.28.42-.28.7,0,.45.35.71.9.71h1.88c1.47,0,2.23.7,2.23,1.92,0,1.5-1.13,2.38-2.94,2.38-1.97,0-3.08-.8-3.08-2.2,0-.57.25-.99.77-1.27-.52-.27-.94-.8-.94-1.47,0-.6.24-1.09.73-1.44-.29-.41-.45-.9-.45-1.46,0-.74.25-1.34.74-1.82.5-.48,1.16-.71,1.97-.71.35,0,.69.06,1.01.15h2.56ZM520.06,64.07c-.6.04-1.02.36-1.02.99,0,.77.7,1.18,1.89,1.18,1.11,0,1.75-.43,1.75-1.26,0-.6-.42-.91-1.27-.91h-1.34ZM520.66,60.9c.91,0,1.51-.6,1.51-1.44s-.6-1.47-1.51-1.47-1.51.62-1.51,1.47.6,1.44,1.51,1.44Z" style="fill: #000; stroke-width: 0px;"/>
      <path d="M526.44,53.91v4.05c.29-.6.98-1.04,1.93-1.04,1.47,0,2.3,1.04,2.3,2.65v4.57h-1.22v-4.37c0-1.08-.52-1.67-1.37-1.67-.95,0-1.64.85-1.64,2.25v3.78h-1.21v-10.23h1.21Z" style="fill: #000; stroke-width: 0px;"/>
      <path d="M541,59.57v4.57h-1.22v-4.37c0-1.08-.52-1.67-1.37-1.67-.95,0-1.64.85-1.64,2.25v3.78h-1.21v-7.06h1.08l.07.97c.39-.74,1.05-1.12,1.99-1.12,1.47,0,2.3,1.04,2.3,2.65Z" style="fill: #000; stroke-width: 0px;"/>
      <path d="M548.28,57.08v7.06h-1.08l-.07-.97c-.35.74-1.01,1.12-1.95,1.12-1.47,0-2.27-1.02-2.27-2.65v-4.57h1.2v4.37c0,1.11.49,1.68,1.34,1.68.94,0,1.61-.8,1.61-2.13v-3.92h1.2Z" style="fill: #000; stroke-width: 0px;"/>
      <path d="M559.99,59.57v4.57h-1.2v-4.37c0-1.08-.5-1.67-1.36-1.67-.94,0-1.61.81-1.62,2.16v3.88h-1.2v-4.37c0-1.08-.5-1.67-1.36-1.67-.95,0-1.62.85-1.62,2.25v3.78h-1.21v-7.06h1.08l.07.97c.34-.66,1.05-1.12,1.96-1.12,1.01,0,1.7.45,2.06,1.34.46-.9,1.18-1.34,2.13-1.34,1.47,0,2.28,1.04,2.28,2.65Z" style="fill: #000; stroke-width: 0px;"/>
      <path d="M563.21,53.91v4.13c.49-.74,1.27-1.12,2.35-1.12.98,0,1.78.35,2.38,1.05.62.7.92,1.58.92,2.63s-.31,1.95-.91,2.65c-.6.69-1.4,1.04-2.38,1.04-1.06,0-1.88-.39-2.42-1.19l-.07,1.04h-1.08v-10.23h1.21ZM563.84,58.78c-.43.46-.64,1.08-.64,1.83v.07c0,.74.21,1.33.64,1.79.43.46.95.69,1.55.69,1.34,0,2.23-1.04,2.23-2.55,0-.74-.21-1.36-.63-1.82-.42-.48-.95-.71-1.61-.71-.59,0-1.11.24-1.54.7Z" style="fill: #000; stroke-width: 0px;"/>
      <path d="M576.62,60.51v.57h-5.36c.1,1.29.97,2.09,2.18,2.09.98,0,1.61-.38,1.91-1.15h1.21c-.43,1.42-1.53,2.27-3.14,2.27-1,0-1.82-.34-2.45-1.01-.63-.67-.95-1.55-.95-2.66s.31-1.96.94-2.65c.63-.7,1.44-1.05,2.47-1.05,1.92,0,3.21,1.27,3.21,3.59ZM571.27,60.01h4.13c-.01-1.19-.81-1.96-1.99-1.96s-1.99.8-2.14,1.96Z" style="fill: #000; stroke-width: 0px;"/>
      <path d="M581.69,58.21c-.57,0-1.05.17-1.43.52-.42.38-.63.94-.64,1.67v3.74h-1.21v-7.06h1.08l.08,1.23c.27-.73.99-1.3,2.12-1.3v1.2Z" style="fill: #000; stroke-width: 0px;"/>
      <path d="M586.74,57.54c.43.41.66.95.67,1.61h-1.23c-.01-.74-.38-1.11-1.12-1.11s-1.08.39-1.08.95.28.78,1.33,1.02c1.68.39,2.31.98,2.31,2.12,0,1.34-1.02,2.16-2.48,2.16-1.61,0-2.54-.9-2.58-2.3h1.23c.01.78.48,1.18,1.37,1.18.79,0,1.22-.39,1.22-.95,0-.6-.34-.87-1.47-1.13-1.51-.35-2.17-.9-2.17-2.02,0-.6.21-1.11.62-1.51.42-.42.99-.63,1.72-.63.69,0,1.23.21,1.65.62Z" style="fill: #000; stroke-width: 0px;"/>
      <path d="M314.99,74.76c.67.69,1.01,1.57,1.01,2.65s-.34,1.96-1.01,2.65c-.66.69-1.51,1.04-2.56,1.04s-1.92-.35-2.59-1.04c-.66-.69-.99-1.57-.99-2.65s.34-1.96.99-2.65c.67-.69,1.54-1.04,2.59-1.04s1.91.35,2.56,1.04ZM310.73,75.58c-.43.48-.64,1.09-.64,1.83s.21,1.34.64,1.83,1.01.73,1.71.73,1.25-.24,1.67-.73c.43-.49.64-1.09.64-1.83s-.21-1.36-.64-1.83c-.42-.49-.98-.73-1.67-.73s-1.27.24-1.71.73Z" style="fill: #000; stroke-width: 0px;"/>
      <path d="M321.04,70.76v1.09c-.27-.11-.56-.17-.85-.17-.66,0-.99.38-.99,1.15v1.05h1.75v1.11h-1.75v5.95h-1.22v-5.95h-1.27v-1.11h1.27v-1.08c0-1.4.77-2.21,2.12-2.21.38,0,.69.06.95.17Z" style="fill: #000; stroke-width: 0px;"/>
      <path d="M326.3,70.71v4.05c.29-.6.98-1.04,1.93-1.04,1.47,0,2.3,1.04,2.3,2.65v4.57h-1.22v-4.37c0-1.08-.52-1.67-1.37-1.67-.95,0-1.64.85-1.64,2.25v3.78h-1.21v-10.23h1.21Z" style="fill: #000; stroke-width: 0px;"/>
      <path d="M338.12,74.76c.67.69,1.01,1.57,1.01,2.65s-.34,1.96-1.01,2.65c-.66.69-1.51,1.04-2.56,1.04s-1.92-.35-2.59-1.04c-.66-.69-.99-1.57-.99-2.65s.34-1.96.99-2.65c.67-.69,1.54-1.04,2.59-1.04s1.91.35,2.56,1.04ZM333.86,75.58c-.43.48-.64,1.09-.64,1.83s.21,1.34.64,1.83c.43.49,1.01.73,1.71.73s1.25-.24,1.67-.73c.43-.49.64-1.09.64-1.83s-.21-1.36-.64-1.83c-.42-.49-.98-.73-1.67-.73s-1.27.24-1.71.73Z" style="fill: #000; stroke-width: 0px;"/>
      <path d="M344.35,74.34c.43.41.66.95.67,1.61h-1.23c-.01-.74-.38-1.11-1.12-1.11s-1.08.39-1.08.95.28.78,1.33,1.02c1.68.39,2.31.98,2.31,2.12,0,1.34-1.02,2.16-2.48,2.16-1.61,0-2.54-.9-2.58-2.3h1.23c.01.78.48,1.18,1.37,1.18.79,0,1.22-.39,1.22-.95,0-.6-.34-.87-1.47-1.13-1.51-.35-2.17-.9-2.17-2.02,0-.6.21-1.11.62-1.51.42-.42.99-.63,1.72-.63.69,0,1.23.21,1.65.62Z" style="fill: #000; stroke-width: 0px;"/>
      <path d="M352.92,74.78c.6.69.91,1.57.91,2.63s-.31,1.93-.92,2.63c-.6.7-1.4,1.05-2.38,1.05-1.11,0-1.93-.46-2.34-1.12v3.98h-1.22v-10.07h1.09l.06,1.04c.55-.8,1.36-1.19,2.42-1.19.98,0,1.78.35,2.38,1.05ZM348.8,75.55c-.43.46-.64,1.05-.64,1.79v.07c0,.76.21,1.37.64,1.83.43.46.95.7,1.54.7.66,0,1.19-.24,1.61-.7.42-.48.63-1.09.63-1.83,0-1.51-.88-2.55-2.23-2.55-.6,0-1.12.22-1.55.69Z" style="fill: #000; stroke-width: 0px;"/>
      <path d="M356.04,72.52c-.46,0-.83-.36-.83-.81s.36-.83.83-.83.84.36.84.83-.38.81-.84.81ZM356.64,73.88v7.06h-1.21v-7.06h1.21Z" style="fill: #000; stroke-width: 0px;"/>
      <path d="M360.42,72.12v1.76s1.79,0,1.79,0v1.12h-1.82l-.03,3.78c0,.83.22,1.15,1.01,1.15.31,0,.59-.04.84-.13v1.08c-.25.1-.6.15-1.05.15-1.36,0-2.02-.62-2-2.03l.03-4.01h-1.32v-1.12h1.32v-1.76h1.23Z" style="fill: #000; stroke-width: 0px;"/>
      <path d="M368.64,76.26v4.68h-1.09l-.06-.97c-.38.67-1.15,1.12-2.14,1.12-1.25,0-2.06-.77-2.06-1.99,0-1.11.66-1.79,1.97-2.04l2.16-.41v-.35c0-.97-.43-1.46-1.3-1.46s-1.44.46-1.44,1.29h-1.19c.01-.69.27-1.26.76-1.72.49-.46,1.11-.69,1.88-.69,1.58,0,2.52.91,2.52,2.54ZM367.42,77.7l-1.93.42c-.62.15-.98.39-.98.97s.39.88,1.08.88c.62,0,1.09-.24,1.43-.7.27-.36.41-.8.41-1.3v-.27Z" style="fill: #000; stroke-width: 0px;"/>
      <path d="M371.87,70.71v10.23h-1.21v-10.23h1.21Z" style="fill: #000; stroke-width: 0px;"/>
      <path d="M374.68,72.52c-.46,0-.83-.36-.83-.81s.36-.83.83-.83.84.36.84.83-.38.81-.84.81ZM375.29,73.88v7.06h-1.21v-7.06h1.21Z" style="fill: #000; stroke-width: 0px;"/>
      <path d="M382.25,73.88v.92l-3.75,5.06h3.98v1.08h-5.59v-.92l3.75-5.06h-3.73v-1.08h5.34Z" style="fill: #000; stroke-width: 0px;"/>
      <path d="M388.81,76.26v4.68h-1.09l-.06-.97c-.38.67-1.15,1.12-2.14,1.12-1.25,0-2.06-.77-2.06-1.99,0-1.11.66-1.79,1.97-2.04l2.16-.41v-.35c0-.97-.43-1.46-1.3-1.46s-1.44.46-1.44,1.29h-1.19c.01-.69.27-1.26.76-1.72.49-.46,1.11-.69,1.88-.69,1.58,0,2.52.91,2.52,2.54ZM387.59,77.7l-1.93.42c-.62.15-.98.39-.98.97s.39.88,1.08.88c.62,0,1.09-.24,1.43-.7.27-.36.41-.8.41-1.3v-.27Z" style="fill: #000; stroke-width: 0px;"/>
      <path d="M392.41,72.12v1.76s1.79,0,1.79,0v1.12h-1.82l-.03,3.78c0,.83.22,1.15,1.01,1.15.31,0,.59-.04.84-.13v1.08c-.25.1-.6.15-1.05.15-1.36,0-2.02-.62-2-2.03l.03-4.01h-1.32v-1.12h1.32v-1.76h1.23Z" style="fill: #000; stroke-width: 0px;"/>
      <path d="M396.34,72.52c-.46,0-.83-.36-.83-.81s.36-.83.83-.83.84.36.84.83-.38.81-.84.81ZM396.95,73.88v7.06h-1.21v-7.06h1.21Z" style="fill: #000; stroke-width: 0px;"/>
      <path d="M404.69,74.76c.67.69,1.01,1.57,1.01,2.65s-.34,1.96-1.01,2.65c-.66.69-1.51,1.04-2.56,1.04s-1.92-.35-2.59-1.04c-.66-.69-.99-1.57-.99-2.65s.34-1.96.99-2.65c.67-.69,1.54-1.04,2.59-1.04s1.91.35,2.56,1.04ZM400.43,75.58c-.43.48-.64,1.09-.64,1.83s.21,1.34.64,1.83c.43.49,1.01.73,1.71.73s1.25-.24,1.67-.73c.43-.49.64-1.09.64-1.83s-.21-1.36-.64-1.83c-.42-.49-.98-.73-1.67-.73s-1.27.24-1.71.73Z" style="fill: #000; stroke-width: 0px;"/>
      <path d="M412.7,76.37v4.57h-1.22v-4.37c0-1.08-.52-1.67-1.37-1.67-.95,0-1.64.85-1.64,2.25v3.78h-1.21v-7.06h1.08l.07.97c.39-.74,1.05-1.12,1.99-1.12,1.47,0,2.3,1.04,2.3,2.65Z" style="fill: #000; stroke-width: 0px;"/>
      <path d="M418.37,74.34c.43.41.66.95.67,1.61h-1.23c-.01-.74-.38-1.11-1.12-1.11s-1.08.39-1.08.95.28.78,1.33,1.02c1.68.39,2.31.98,2.31,2.12,0,1.34-1.02,2.16-2.48,2.16-1.61,0-2.54-.9-2.58-2.3h1.23c.01.78.48,1.18,1.37,1.18.79,0,1.22-.39,1.22-.95,0-.6-.34-.87-1.47-1.13-1.51-.35-2.17-.9-2.17-2.02,0-.6.21-1.11.62-1.51.42-.42.99-.63,1.72-.63.69,0,1.23.21,1.65.62Z" style="fill: #000; stroke-width: 0px;"/>
      <path d="M424.41,72.52c-.46,0-.83-.36-.83-.81s.36-.83.83-.83.84.36.84.83-.38.81-.84.81ZM425.01,73.88v7.06h-1.21v-7.06h1.21Z" style="fill: #000; stroke-width: 0px;"/>
      <path d="M432.62,76.37v4.57h-1.22v-4.37c0-1.08-.52-1.67-1.37-1.67-.95,0-1.64.85-1.64,2.25v3.78h-1.21v-7.06h1.08l.07.97c.39-.74,1.05-1.12,1.99-1.12,1.47,0,2.3,1.04,2.3,2.65Z" style="fill: #000; stroke-width: 0px;"/>
      <path d="M439.13,72.12v1.76s1.79,0,1.79,0v1.12h-1.82l-.03,3.78c0,.83.22,1.15,1.01,1.15.31,0,.59-.04.84-.13v1.08c-.25.1-.6.15-1.05.15-1.36,0-2.02-.62-2-2.03l.03-4.01h-1.32v-1.12h1.32v-1.76h1.23Z" style="fill: #000; stroke-width: 0px;"/>
      <path d="M443.62,70.71v4.05c.29-.6.98-1.04,1.93-1.04,1.47,0,2.3,1.04,2.3,2.65v4.57h-1.22v-4.37c0-1.08-.52-1.67-1.37-1.67-.95,0-1.64.85-1.64,2.25v3.78h-1.21v-10.23h1.21Z" style="fill: #000; stroke-width: 0px;"/>
      <path d="M455.9,77.31v.57h-5.36c.1,1.29.97,2.09,2.18,2.09.98,0,1.61-.38,1.91-1.15h1.21c-.43,1.42-1.53,2.27-3.14,2.27-1,0-1.82-.34-2.45-1.01-.63-.67-.95-1.55-.95-2.66s.31-1.96.94-2.65c.63-.7,1.44-1.05,2.47-1.05,1.92,0,3.21,1.27,3.21,3.59ZM450.55,76.81h4.13c-.01-1.19-.81-1.96-1.99-1.96s-1.99.8-2.14,1.96Z" style="fill: #000; stroke-width: 0px;"/>
      <path d="M465.62,73.67c0,.9-.39,1.85-1.19,2.87l-2.51,3.21h3.85v1.19h-5.6v-.94l3.15-3.98c.73-.94,1.01-1.48,1.01-2.31,0-1.05-.49-1.57-1.46-1.57s-1.53.6-1.53,1.82h-1.27c0-1.85,1.09-3.01,2.82-3.01s2.73,1.04,2.73,2.72Z" style="fill: #000; stroke-width: 0px;"/>
      <path d="M472.57,79.75c-.57.91-1.37,1.37-2.42,1.37s-1.86-.46-2.44-1.37c-.57-.91-.85-2.16-.85-3.73s.28-2.8.85-3.71c.57-.91,1.39-1.36,2.44-1.36s1.85.46,2.42,1.37c.57.91.87,2.14.87,3.7s-.29,2.82-.87,3.73ZM468.15,76.02c0,2.45.7,3.91,2,3.91s1.99-1.46,1.99-3.91-.7-3.88-1.99-3.88-2,1.46-2,3.88Z" style="fill: #000; stroke-width: 0px;"/>
      <path d="M480.23,73.67c0,.9-.39,1.85-1.19,2.87l-2.51,3.21h3.85v1.19h-5.6v-.94l3.15-3.98c.73-.94,1.01-1.48,1.01-2.31,0-1.05-.49-1.57-1.46-1.57s-1.53.6-1.53,1.82h-1.27c0-1.85,1.09-3.01,2.82-3.01s2.73,1.04,2.73,2.72Z" style="fill: #000; stroke-width: 0px;"/>
      <path d="M487.05,73.67c0,.9-.39,1.85-1.19,2.87l-2.51,3.21h3.85v1.19h-5.6v-.94l3.15-3.98c.73-.94,1.01-1.48,1.01-2.31,0-1.05-.49-1.57-1.46-1.57s-1.53.6-1.53,1.82h-1.27c0-1.85,1.09-3.01,2.82-3.01s2.73,1.04,2.73,2.72Z" style="fill: #000; stroke-width: 0px;"/>
      <path d="M492.44,76.77v1.08h-4.41v-1.08h4.41Z" style="fill: #000; stroke-width: 0px;"/>
      <path d="M498.98,73.67c0,.9-.39,1.85-1.19,2.87l-2.51,3.21h3.85v1.19h-5.6v-.94l3.15-3.98c.73-.94,1.01-1.48,1.01-2.31,0-1.05-.49-1.57-1.46-1.57s-1.53.6-1.53,1.82h-1.27c0-1.85,1.09-3.01,2.82-3.01s2.73,1.04,2.73,2.72Z" style="fill: #000; stroke-width: 0px;"/>
      <path d="M505.94,79.75c-.57.91-1.37,1.37-2.42,1.37s-1.86-.46-2.44-1.37c-.57-.91-.85-2.16-.85-3.73s.28-2.8.85-3.71c.57-.91,1.39-1.36,2.44-1.36s1.85.46,2.42,1.37c.57.91.87,2.14.87,3.7s-.29,2.82-.87,3.73ZM501.51,76.02c0,2.45.7,3.91,2,3.91s1.99-1.46,1.99-3.91-.7-3.88-1.99-3.88-2,1.46-2,3.88Z" style="fill: #000; stroke-width: 0px;"/>
      <path d="M513.59,73.67c0,.9-.39,1.85-1.19,2.87l-2.51,3.21h3.85v1.19h-5.6v-.94l3.15-3.98c.73-.94,1.01-1.48,1.01-2.31,0-1.05-.49-1.57-1.46-1.57s-1.53.6-1.53,1.82h-1.27c0-1.85,1.09-3.01,2.82-3.01s2.73,1.04,2.73,2.72Z" style="fill: #000; stroke-width: 0px;"/>
      <path d="M519.26,75.86c.95.24,1.71,1.12,1.71,2.42,0,.84-.28,1.53-.84,2.06-.56.52-1.29.78-2.2.78-1.91,0-3.1-1.11-3.1-3h1.26c.01,1.22.74,1.81,1.86,1.81,1.02,0,1.72-.67,1.72-1.7,0-1.18-.84-1.81-2.31-1.81h-.32v-1.12h.31c1.39,0,1.99-.49,1.99-1.57,0-.99-.52-1.6-1.47-1.6s-1.55.59-1.55,1.77h-1.28c0-1.81,1.09-2.96,2.82-2.96.85,0,1.54.27,2.03.78.49.52.74,1.18.74,1.98,0,1.16-.63,1.88-1.37,2.14Z" style="fill: #000; stroke-width: 0px;"/>
      <path d="M529.27,74.34c.43.41.66.95.67,1.61h-1.23c-.01-.74-.38-1.11-1.12-1.11s-1.08.39-1.08.95.28.78,1.33,1.02c1.68.39,2.31.98,2.31,2.12,0,1.34-1.02,2.16-2.48,2.16-1.61,0-2.54-.9-2.58-2.3h1.23c.01.78.48,1.18,1.37,1.18.79,0,1.22-.39,1.22-.95,0-.6-.34-.87-1.47-1.13-1.51-.35-2.17-.9-2.17-2.02,0-.6.21-1.11.62-1.51.42-.42.99-.63,1.72-.63.69,0,1.23.21,1.65.62Z" style="fill: #000; stroke-width: 0px;"/>
      <path d="M537.83,77.31v.57h-5.36c.1,1.29.97,2.09,2.18,2.09.98,0,1.61-.38,1.91-1.15h1.21c-.43,1.42-1.53,2.27-3.14,2.27-1,0-1.82-.34-2.45-1.01-.63-.67-.95-1.55-.95-2.66s.31-1.96.94-2.65c.63-.7,1.44-1.05,2.47-1.05,1.92,0,3.21,1.27,3.21,3.59ZM532.48,76.81h4.13c-.01-1.19-.81-1.96-1.99-1.96s-1.99.8-2.14,1.96Z" style="fill: #000; stroke-width: 0px;"/>
      <path d="M544.46,76.26v4.68h-1.09l-.06-.97c-.38.67-1.15,1.12-2.14,1.12-1.25,0-2.06-.77-2.06-1.99,0-1.11.66-1.79,1.97-2.04l2.16-.41v-.35c0-.97-.43-1.46-1.3-1.46s-1.44.46-1.44,1.29h-1.19c.01-.69.27-1.26.76-1.72.49-.46,1.11-.69,1.88-.69,1.58,0,2.52.91,2.52,2.54ZM543.24,77.7l-1.93.42c-.62.15-.98.39-.98.97s.39.88,1.08.88c.62,0,1.09-.24,1.43-.7.27-.36.41-.8.41-1.3v-.27Z" style="fill: #000; stroke-width: 0px;"/>
      <path d="M550.1,74.34c.43.41.66.95.67,1.61h-1.23c-.01-.74-.38-1.11-1.12-1.11s-1.08.39-1.08.95.28.78,1.33,1.02c1.68.39,2.31.98,2.31,2.12,0,1.34-1.02,2.16-2.48,2.16-1.61,0-2.54-.9-2.58-2.3h1.23c.01.78.48,1.18,1.37,1.18.79,0,1.22-.39,1.22-.95,0-.6-.34-.87-1.47-1.13-1.51-.35-2.17-.9-2.17-2.02,0-.6.21-1.11.62-1.51.42-.42.99-.63,1.72-.63.69,0,1.23.21,1.65.62Z" style="fill: #000; stroke-width: 0px;"/>
      <path d="M558.2,74.76c.67.69,1.01,1.57,1.01,2.65s-.34,1.96-1.01,2.65c-.66.69-1.51,1.04-2.56,1.04s-1.92-.35-2.59-1.04c-.66-.69-.99-1.57-.99-2.65s.34-1.96.99-2.65c.67-.69,1.54-1.04,2.59-1.04s1.91.35,2.56,1.04ZM553.94,75.58c-.43.48-.64,1.09-.64,1.83s.21,1.34.64,1.83c.43.49,1.01.73,1.71.73s1.25-.24,1.67-.73c.43-.49.64-1.09.64-1.83s-.21-1.36-.64-1.83c-.42-.49-.98-.73-1.67-.73s-1.27.24-1.71.73Z" style="fill: #000; stroke-width: 0px;"/>
      <path d="M566.2,76.37v4.57h-1.22v-4.37c0-1.08-.52-1.67-1.37-1.67-.95,0-1.64.85-1.64,2.25v3.78h-1.21v-7.06h1.08l.07.97c.39-.74,1.05-1.12,1.99-1.12,1.47,0,2.3,1.04,2.3,2.65Z" style="fill: #000; stroke-width: 0px;"/>
      <path d="M569.38,80.31c0,.84-.42,1.79-1.02,2.47l-.39-.15c.25-.43.42-.97.49-1.58-.45-.04-.76-.36-.76-.81s.38-.83.84-.83c.49,0,.84.36.84.91Z" style="fill: #000; stroke-width: 0px;"/>
      <path d="M315.47,91.58c.6.69.91,1.57.91,2.63s-.31,1.93-.92,2.63c-.6.7-1.4,1.05-2.38,1.05-1.11,0-1.93-.46-2.34-1.12v3.98h-1.22v-10.07h1.09l.06,1.04c.55-.8,1.36-1.19,2.42-1.19.98,0,1.78.35,2.38,1.05ZM311.35,92.35c-.43.46-.64,1.05-.64,1.79v.07c0,.76.21,1.37.64,1.83.43.46.95.7,1.54.7.66,0,1.19-.24,1.61-.7.42-.48.63-1.09.63-1.83,0-1.51-.88-2.55-2.23-2.55-.6,0-1.12.22-1.55.69Z" style="fill: #000; stroke-width: 0px;"/>
      <path d="M322.88,93.06v4.68h-1.09l-.06-.97c-.38.67-1.15,1.12-2.14,1.12-1.25,0-2.06-.77-2.06-1.99,0-1.11.66-1.79,1.97-2.04l2.16-.41v-.35c0-.97-.43-1.46-1.3-1.46s-1.44.46-1.44,1.29h-1.19c.01-.69.27-1.26.76-1.72.49-.46,1.11-.69,1.88-.69,1.58,0,2.52.91,2.52,2.54ZM321.66,94.5l-1.93.42c-.62.15-.98.39-.98.97s.39.88,1.08.88c.62,0,1.09-.24,1.43-.7.27-.36.41-.8.41-1.3v-.27Z" style="fill: #000; stroke-width: 0px;"/>
      <path d="M328.22,91.81c-.57,0-1.05.17-1.43.52-.42.38-.63.94-.64,1.67v3.74h-1.21v-7.06h1.08l.08,1.23c.27-.73.99-1.3,2.12-1.3v1.2Z" style="fill: #000; stroke-width: 0px;"/>
      <path d="M331.32,88.92v1.76s1.79,0,1.79,0v1.12h-1.82l-.03,3.78c0,.83.22,1.15,1.01,1.15.31,0,.59-.04.84-.13v1.08c-.25.1-.6.15-1.05.15-1.36,0-2.02-.62-2-2.03l.03-4.01h-1.32v-1.12h1.32v-1.76h1.23Z" style="fill: #000; stroke-width: 0px;"/>
      <path d="M335.25,89.32c-.46,0-.83-.36-.83-.81s.36-.83.83-.83.84.36.84.83-.38.81-.84.81ZM335.85,90.68v7.06h-1.21v-7.06h1.21Z" style="fill: #000; stroke-width: 0px;"/>
      <path d="M344.01,92.88h-1.2c-.28-.78-1.01-1.23-1.92-1.23-.63,0-1.16.24-1.58.73-.41.49-.62,1.11-.62,1.85s.21,1.33.63,1.82.95.73,1.6.73c.9,0,1.65-.49,1.89-1.23h1.22c-.38,1.51-1.58,2.35-3.15,2.35-.99,0-1.82-.35-2.46-1.04-.64-.69-.97-1.57-.97-2.63s.32-1.95.97-2.65c.66-.7,1.47-1.05,2.46-1.05,1.58,0,2.8.84,3.14,2.35Z" style="fill: #000; stroke-width: 0px;"/>
      <path d="M350.9,90.68v7.06h-1.08l-.07-.97c-.35.74-1.01,1.12-1.95,1.12-1.47,0-2.27-1.02-2.27-2.65v-4.57h1.2v4.37c0,1.11.49,1.68,1.34,1.68.94,0,1.61-.8,1.61-2.13v-3.92h1.2Z" style="fill: #000; stroke-width: 0px;"/>
      <path d="M354.27,87.51v10.23h-1.21v-10.23h1.21Z" style="fill: #000; stroke-width: 0px;"/>
      <path d="M361.37,93.06v4.68h-1.09l-.06-.97c-.38.67-1.15,1.12-2.14,1.12-1.25,0-2.06-.77-2.06-1.99,0-1.11.66-1.79,1.97-2.04l2.16-.41v-.35c0-.97-.43-1.46-1.3-1.46s-1.44.46-1.44,1.29h-1.19c.01-.69.27-1.26.76-1.72.49-.46,1.11-.69,1.88-.69,1.58,0,2.52.91,2.52,2.54ZM360.16,94.5l-1.93.42c-.62.15-.98.39-.98.97s.39.88,1.08.88c.62,0,1.09-.24,1.43-.7.27-.36.41-.8.41-1.3v-.27Z" style="fill: #000; stroke-width: 0px;"/>
      <path d="M366.72,91.81c-.57,0-1.05.17-1.43.52-.42.38-.63.94-.64,1.67v3.74h-1.21v-7.06h1.08l.08,1.23c.27-.73.99-1.3,2.12-1.3v1.2Z" style="fill: #000; stroke-width: 0px;"/>
      <path d="M369.37,87.51v10.23h-1.21v-10.23h1.21Z" style="fill: #000; stroke-width: 0px;"/>
      <path d="M377.29,90.68l-3.85,10.07h-1.27l1.18-3.11-2.65-6.96h1.29l1.86,5.07.14.53.14-.53,1.86-5.07h1.3Z" style="fill: #000; stroke-width: 0px;"/>
      <path d="M386.41,93.06v4.68h-1.09l-.06-.97c-.38.67-1.15,1.12-2.14,1.12-1.25,0-2.06-.77-2.06-1.99,0-1.11.66-1.79,1.97-2.04l2.16-.41v-.35c0-.97-.43-1.46-1.3-1.46s-1.44.46-1.44,1.29h-1.19c.01-.69.27-1.26.76-1.72.49-.46,1.11-.69,1.88-.69,1.58,0,2.52.91,2.52,2.54ZM385.19,94.5l-1.93.42c-.62.15-.98.39-.98.97s.39.88,1.08.88c.62,0,1.09-.24,1.43-.7.27-.36.41-.8.41-1.3v-.27Z" style="fill: #000; stroke-width: 0px;"/>
      <path d="M397.97,93.17v4.57h-1.2v-4.37c0-1.08-.5-1.67-1.36-1.67-.94,0-1.61.81-1.62,2.16v3.88h-1.2v-4.37c0-1.08-.5-1.67-1.36-1.67-.95,0-1.62.85-1.62,2.25v3.78h-1.21v-7.06h1.08l.07.97c.34-.66,1.05-1.12,1.96-1.12,1.01,0,1.7.45,2.06,1.34.46-.9,1.18-1.34,2.13-1.34,1.47,0,2.28,1.04,2.28,2.65Z" style="fill: #000; stroke-width: 0px;"/>
      <path d="M405.56,91.56c.67.69,1.01,1.57,1.01,2.65s-.34,1.96-1.01,2.65c-.66.69-1.51,1.04-2.56,1.04s-1.92-.35-2.59-1.04c-.66-.69-.99-1.57-.99-2.65s.34-1.96.99-2.65c.67-.69,1.54-1.04,2.59-1.04s1.91.35,2.56,1.04ZM401.3,92.38c-.43.48-.64,1.09-.64,1.83s.21,1.34.64,1.83c.43.49,1.01.73,1.71.73s1.25-.24,1.67-.73c.43-.49.64-1.09.64-1.83s-.21-1.36-.64-1.83c-.42-.49-.98-.73-1.67-.73s-1.27.24-1.71.73Z" style="fill: #000; stroke-width: 0px;"/>
      <path d="M413.57,93.17v4.57h-1.22v-4.37c0-1.08-.52-1.67-1.37-1.67-.95,0-1.64.85-1.64,2.25v3.78h-1.21v-7.06h1.08l.07.97c.39-.74,1.05-1.12,1.99-1.12,1.47,0,2.3,1.04,2.3,2.65Z" style="fill: #000; stroke-width: 0px;"/>
      <path d="M421.6,90.68v1.06h-1.23c.24.39.35.83.35,1.32,0,.71-.25,1.32-.74,1.79-.49.48-1.15.71-1.95.71-.57,0-1.08-.13-1.53-.38-.18.18-.28.42-.28.7,0,.45.35.71.9.71h1.88c1.47,0,2.23.7,2.23,1.92,0,1.5-1.13,2.38-2.94,2.38-1.97,0-3.08-.8-3.08-2.2,0-.57.25-.99.77-1.27-.52-.27-.94-.8-.94-1.47,0-.6.24-1.09.73-1.44-.29-.41-.45-.9-.45-1.46,0-.74.25-1.34.74-1.82.5-.48,1.16-.71,1.97-.71.35,0,.69.06,1.01.15h2.56ZM417.41,97.67c-.6.04-1.02.36-1.02.99,0,.77.7,1.18,1.89,1.18,1.11,0,1.75-.43,1.75-1.26,0-.6-.42-.91-1.27-.91h-1.34ZM418.02,94.5c.91,0,1.51-.6,1.51-1.44s-.6-1.47-1.51-1.47-1.51.62-1.51,1.47.6,1.44,1.51,1.44Z" style="fill: #000; stroke-width: 0px;"/>
      <path d="M431.47,92.88h-1.2c-.28-.78-1.01-1.23-1.92-1.23-.63,0-1.16.24-1.58.73-.41.49-.62,1.11-.62,1.85s.21,1.33.63,1.82.95.73,1.6.73c.9,0,1.65-.49,1.89-1.23h1.22c-.38,1.51-1.58,2.35-3.15,2.35-.99,0-1.82-.35-2.46-1.04-.64-.69-.97-1.57-.97-2.63s.32-1.95.97-2.65c.66-.7,1.47-1.05,2.46-1.05,1.58,0,2.8.84,3.14,2.35Z" style="fill: #000; stroke-width: 0px;"/>
      <path d="M434.3,87.51v4.05c.29-.6.98-1.04,1.93-1.04,1.47,0,2.3,1.04,2.3,2.65v4.57h-1.22v-4.37c0-1.08-.52-1.67-1.37-1.67-.95,0-1.64.85-1.64,2.25v3.78h-1.21v-10.23h1.21Z" style="fill: #000; stroke-width: 0px;"/>
      <path d="M441.18,89.32c-.46,0-.83-.36-.83-.81s.36-.83.83-.83.84.36.84.83-.38.81-.84.81ZM441.79,90.68v7.06h-1.21v-7.06h1.21Z" style="fill: #000; stroke-width: 0px;"/>
      <path d="M445.2,87.51v10.23h-1.21v-10.23h1.21Z" style="fill: #000; stroke-width: 0px;"/>
      <path d="M453.66,87.51v10.23h-1.08l-.07-1.04c-.55.8-1.36,1.19-2.42,1.19-.98,0-1.78-.35-2.38-1.04-.6-.7-.91-1.58-.91-2.65s.31-1.93.91-2.63c.62-.7,1.42-1.05,2.4-1.05,1.08,0,1.86.38,2.35,1.12v-4.13h1.2ZM448.67,92.39c-.42.46-.63,1.08-.63,1.82,0,1.51.88,2.55,2.23,2.55.6,0,1.11-.22,1.54-.69s.66-1.05.66-1.79v-.07c0-.76-.22-1.37-.66-1.83-.43-.46-.94-.7-1.53-.7-.66,0-1.19.24-1.61.71Z" style="fill: #000; stroke-width: 0px;"/>
      <path d="M459.15,91.81c-.57,0-1.05.17-1.43.52-.42.38-.63.94-.64,1.67v3.74h-1.21v-7.06h1.08l.08,1.23c.27-.73.99-1.3,2.12-1.3v1.2Z" style="fill: #000; stroke-width: 0px;"/>
      <path d="M466.44,94.11v.57h-5.36c.1,1.29.97,2.09,2.18,2.09.98,0,1.61-.38,1.91-1.15h1.21c-.43,1.42-1.53,2.27-3.14,2.27-1,0-1.82-.34-2.45-1.01-.63-.67-.95-1.55-.95-2.66s.31-1.96.94-2.65c.63-.7,1.44-1.05,2.47-1.05,1.92,0,3.21,1.27,3.21,3.59ZM461.09,93.61h4.13c-.01-1.19-.81-1.96-1.99-1.96s-1.99.8-2.14,1.96Z" style="fill: #000; stroke-width: 0px;"/>
      <path d="M473.58,93.17v4.57h-1.22v-4.37c0-1.08-.52-1.67-1.37-1.67-.95,0-1.64.85-1.64,2.25v3.78h-1.21v-7.06h1.08l.07.97c.39-.74,1.05-1.12,1.99-1.12,1.47,0,2.3,1.04,2.3,2.65Z" style="fill: #000; stroke-width: 0px;"/>
      <path d="M483.41,93.06v4.68h-1.09l-.06-.97c-.38.67-1.15,1.12-2.14,1.12-1.25,0-2.06-.77-2.06-1.99,0-1.11.66-1.79,1.97-2.04l2.16-.41v-.35c0-.97-.43-1.46-1.3-1.46s-1.44.46-1.44,1.29h-1.19c.01-.69.27-1.26.76-1.72.49-.46,1.11-.69,1.88-.69,1.58,0,2.52.91,2.52,2.54ZM482.19,94.5l-1.93.42c-.62.15-.98.39-.98.97s.39.88,1.08.88c.62,0,1.09-.24,1.43-.7.27-.36.41-.8.41-1.3v-.27Z" style="fill: #000; stroke-width: 0px;"/>
      <path d="M490.83,93.17v4.57h-1.22v-4.37c0-1.08-.52-1.67-1.37-1.67-.95,0-1.64.85-1.64,2.25v3.78h-1.21v-7.06h1.08l.07.97c.39-.74,1.05-1.12,1.99-1.12,1.47,0,2.3,1.04,2.3,2.65Z" style="fill: #000; stroke-width: 0px;"/>
      <path d="M499.13,87.51v10.23h-1.08l-.07-1.04c-.55.8-1.36,1.19-2.42,1.19-.98,0-1.78-.35-2.38-1.04-.6-.7-.91-1.58-.91-2.65s.31-1.93.91-2.63c.62-.7,1.42-1.05,2.4-1.05,1.08,0,1.86.38,2.35,1.12v-4.13h1.2ZM494.15,92.39c-.42.46-.63,1.08-.63,1.82,0,1.51.88,2.55,2.23,2.55.6,0,1.11-.22,1.54-.69s.66-1.05.66-1.79v-.07c0-.76-.22-1.37-.66-1.83-.43-.46-.94-.7-1.53-.7-.66,0-1.19.24-1.61.71Z" style="fill: #000; stroke-width: 0px;"/>
      <path d="M509.07,93.06v4.68h-1.09l-.06-.97c-.38.67-1.15,1.12-2.14,1.12-1.25,0-2.06-.77-2.06-1.99,0-1.11.66-1.79,1.97-2.04l2.16-.41v-.35c0-.97-.43-1.46-1.3-1.46s-1.44.46-1.44,1.29h-1.19c.01-.69.27-1.26.76-1.72.49-.46,1.11-.69,1.88-.69,1.58,0,2.52.91,2.52,2.54ZM507.85,94.5l-1.93.42c-.62.15-.98.39-.98.97s.39.88,1.08.88c.62,0,1.09-.24,1.43-.7.27-.36.41-.8.41-1.3v-.27Z" style="fill: #000; stroke-width: 0px;"/>
      <path d="M517.35,87.51v10.23h-1.08l-.07-1.04c-.55.8-1.36,1.19-2.42,1.19-.98,0-1.78-.35-2.38-1.04-.6-.7-.91-1.58-.91-2.65s.31-1.93.91-2.63c.62-.7,1.42-1.05,2.4-1.05,1.08,0,1.86.38,2.35,1.12v-4.13h1.2ZM512.36,92.39c-.42.46-.63,1.08-.63,1.82,0,1.51.88,2.55,2.23,2.55.6,0,1.11-.22,1.54-.69s.66-1.05.66-1.79v-.07c0-.76-.22-1.37-.66-1.83-.43-.46-.94-.7-1.53-.7-.66,0-1.19.24-1.61.71Z" style="fill: #000; stroke-width: 0px;"/>
      <path d="M525.05,91.56c.67.69,1.01,1.57,1.01,2.65s-.34,1.96-1.01,2.65c-.66.69-1.51,1.04-2.56,1.04s-1.92-.35-2.59-1.04c-.66-.69-.99-1.57-.99-2.65s.34-1.96.99-2.65c.67-.69,1.54-1.04,2.59-1.04s1.91.35,2.56,1.04ZM520.79,92.38c-.43.48-.64,1.09-.64,1.83s.21,1.34.64,1.83c.43.49,1.01.73,1.71.73s1.25-.24,1.67-.73c.43-.49.64-1.09.64-1.83s-.21-1.36-.64-1.83c-.42-.49-.98-.73-1.67-.73s-1.27.24-1.71.73Z" style="fill: #000; stroke-width: 0px;"/>
      <path d="M528.87,87.51v10.23h-1.21v-10.23h1.21Z" style="fill: #000; stroke-width: 0px;"/>
      <path d="M537.07,94.11v.57h-5.36c.1,1.29.97,2.09,2.18,2.09.98,0,1.61-.38,1.91-1.15h1.21c-.43,1.42-1.53,2.27-3.14,2.27-1,0-1.82-.34-2.45-1.01-.63-.67-.95-1.55-.95-2.66s.31-1.96.94-2.65c.63-.7,1.44-1.05,2.47-1.05,1.92,0,3.21,1.27,3.21,3.59ZM531.72,93.61h4.13c-.01-1.19-.81-1.96-1.99-1.96s-1.99.8-2.14,1.96Z" style="fill: #000; stroke-width: 0px;"/>
      <path d="M542.43,91.14c.43.41.66.95.67,1.61h-1.23c-.01-.74-.38-1.11-1.12-1.11s-1.08.39-1.08.95.28.78,1.33,1.02c1.68.39,2.31.98,2.31,2.12,0,1.34-1.02,2.16-2.48,2.16-1.61,0-2.54-.9-2.58-2.3h1.23c.01.78.48,1.18,1.37,1.18.79,0,1.22-.39,1.22-.95,0-.6-.34-.87-1.47-1.13-1.51-.35-2.17-.9-2.17-2.02,0-.6.21-1.11.62-1.51.42-.42.99-.63,1.72-.63.69,0,1.23.21,1.65.62Z" style="fill: #000; stroke-width: 0px;"/>
      <path d="M550.95,92.88h-1.2c-.28-.78-1.01-1.23-1.92-1.23-.63,0-1.16.24-1.58.73-.41.49-.62,1.11-.62,1.85s.21,1.33.63,1.82.95.73,1.6.73c.9,0,1.65-.49,1.89-1.23h1.22c-.38,1.51-1.58,2.35-3.15,2.35-.99,0-1.82-.35-2.46-1.04-.64-.69-.97-1.57-.97-2.63s.32-1.95.97-2.65c.66-.7,1.47-1.05,2.46-1.05,1.58,0,2.8.84,3.14,2.35Z" style="fill: #000; stroke-width: 0px;"/>
      <path d="M558.6,94.11v.57h-5.36c.1,1.29.97,2.09,2.18,2.09.98,0,1.61-.38,1.91-1.15h1.21c-.43,1.42-1.53,2.27-3.14,2.27-1,0-1.82-.34-2.45-1.01-.63-.67-.95-1.55-.95-2.66s.31-1.96.94-2.65c.63-.7,1.44-1.05,2.47-1.05,1.92,0,3.21,1.27,3.21,3.59ZM553.25,93.61h4.13c-.01-1.19-.81-1.96-1.99-1.96s-1.99.8-2.14,1.96Z" style="fill: #000; stroke-width: 0px;"/>
      <path d="M565.74,93.17v4.57h-1.22v-4.37c0-1.08-.52-1.67-1.37-1.67-.95,0-1.64.85-1.64,2.25v3.78h-1.21v-7.06h1.08l.07.97c.39-.74,1.05-1.12,1.99-1.12,1.47,0,2.3,1.04,2.3,2.65Z" style="fill: #000; stroke-width: 0px;"/>
      <path d="M569.37,88.92v1.76s1.79,0,1.79,0v1.12h-1.82l-.03,3.78c0,.83.22,1.15,1.01,1.15.31,0,.59-.04.84-.13v1.08c-.25.1-.6.15-1.05.15-1.36,0-2.02-.62-2-2.03l.03-4.01h-1.32v-1.12h1.32v-1.76h1.23Z" style="fill: #000; stroke-width: 0px;"/>
      <path d="M576.31,91.14c.43.41.66.95.67,1.61h-1.23c-.01-.74-.38-1.11-1.12-1.11s-1.08.39-1.08.95.28.78,1.33,1.02c1.68.39,2.31.98,2.31,2.12,0,1.34-1.02,2.16-2.48,2.16-1.61,0-2.54-.9-2.58-2.3h1.23c.01.78.48,1.18,1.37,1.18.79,0,1.22-.39,1.22-.95,0-.6-.34-.87-1.47-1.13-1.51-.35-2.17-.9-2.17-2.02,0-.6.21-1.11.62-1.51.42-.42.99-.63,1.72-.63.69,0,1.23.21,1.65.62Z" style="fill: #000; stroke-width: 0px;"/>
    </g>
  </g>
</svg>